<svg width="476" height="369" viewBox="0 0 476 369" fill="none" xmlns="http://www.w3.org/2000/svg">
<path d="M475.155 311.131H0V311.369H475.155V311.131Z" fill="#EBEBEB"/>
<path d="M427.544 326.422H396.07V326.659H427.544V326.422Z" fill="#EBEBEB"/>
<path d="M314.762 329.007H306.503V329.244H314.762V329.007Z" fill="#EBEBEB"/>
<path d="M395.12 317.603H376.883V317.841H395.12V317.603Z" fill="#EBEBEB"/>
<path d="M90.8971 319.199H49.8532V319.437H90.8971V319.199Z" fill="#EBEBEB"/>
<path d="M105.38 319.199H99.3644V319.437H105.38V319.199Z" fill="#EBEBEB"/>
<path d="M213.962 323.21H124.937V323.447H213.962V323.21Z" fill="#EBEBEB"/>
<path d="M225.223 268.748H41.7281C40.2906 268.745 38.9129 268.172 37.8973 267.155C36.8817 266.138 36.3113 264.759 36.3113 263.321V5.37875C36.3239 3.94951 36.8998 2.58292 37.914 1.57582C38.9282 0.568721 40.2988 0.00244837 41.7281 0H225.223C226.663 0 228.043 0.571695 229.06 1.58932C230.078 2.60694 230.65 3.98713 230.65 5.42627V263.321C230.65 264.76 230.078 266.141 229.06 267.158C228.043 268.176 226.663 268.748 225.223 268.748ZM41.7281 0.190063C40.3536 0.19258 39.0363 0.740353 38.0653 1.71315C37.0943 2.68594 36.5489 4.00427 36.5489 5.37875V263.321C36.5489 264.696 37.0943 266.014 38.0653 266.987C39.0363 267.96 40.3536 268.507 41.7281 268.51H225.223C226.599 268.507 227.917 267.96 228.89 266.987C229.862 266.015 230.41 264.697 230.412 263.321V5.37875C230.41 4.0034 229.862 2.68509 228.89 1.71257C227.917 0.740044 226.599 0.192575 225.223 0.190063H41.7281Z" fill="#EBEBEB"/>
<path d="M430.785 268.748H247.28C245.842 268.745 244.463 268.173 243.446 267.155C242.429 266.138 241.856 264.76 241.854 263.321V5.37875C241.869 3.94864 242.447 2.58206 243.463 1.57523C244.478 0.568388 245.85 0.00242166 247.28 0H430.785C432.212 0.00494588 433.581 0.572323 434.593 1.57916C435.605 2.58599 436.18 3.95115 436.192 5.37875V263.321C436.192 264.757 435.623 266.134 434.61 267.152C433.596 268.169 432.221 268.742 430.785 268.748ZM247.28 0.190063C245.905 0.192575 244.586 0.740044 243.614 1.71257C242.641 2.68509 242.094 4.0034 242.091 5.37875V263.321C242.094 264.697 242.641 266.015 243.614 266.987C244.586 267.96 245.905 268.507 247.28 268.51H430.785C432.16 268.507 433.478 267.96 434.451 266.987C435.424 266.015 435.971 264.697 435.974 263.321V5.37875C435.971 4.0034 435.424 2.68509 434.451 1.71257C433.478 0.740044 432.16 0.192575 430.785 0.190063H247.28Z" fill="#EBEBEB"/>
<path d="M187.81 32.8333H51.7919V173.384H187.81V32.8333Z" fill="#EBEBEB"/>
<path d="M192.561 32.8333H56.5434V173.384H192.561V32.8333Z" fill="#F0F0F0"/>
<path d="M188.96 36.1688H59.974V170.115H188.96V36.1688Z" fill="#E0E0E0"/>
<path d="M185.738 36.1688H59.974V170.115H185.738V36.1688Z" fill="#F5F5F5"/>
<path d="M124.158 36.1688H121.602V170.115H124.158V36.1688Z" fill="#EBEBEB"/>
<path d="M106.9 36.1688L71.0546 170.115H67.6145L103.46 36.1688H106.9Z" fill="white"/>
<path d="M125.241 34.097H123.056V172.681H125.241V34.097Z" fill="#F0F0F0"/>
<path d="M93.8906 36.1688L59.974 162.931V93.2539L75.2455 36.1688H93.8906Z" fill="white"/>
<path d="M185.738 48.3232V61.1809L156.583 170.115H153.142L185.738 48.3232Z" fill="white"/>
<path d="M185.738 74.2856V143.962L178.744 170.115H160.099L185.738 74.2856Z" fill="white"/>
<path d="M289.93 216.291H404.1C404.097 218.307 403.318 220.245 401.923 221.701C400.528 223.158 398.626 224.021 396.612 224.112C384.343 224.663 365.47 226.611 359.483 233.396C348.326 246.054 349.4 290.51 362.771 300.802C366.962 304.033 379.174 310.438 379.174 310.438H314.847C314.847 310.438 326.251 303.9 330.233 300.802C343.537 290.424 343.908 245.997 332.694 233.396C326.992 226.934 309.25 224.843 297.38 224.188C295.364 224.073 293.469 223.191 292.083 221.722C290.697 220.254 289.927 218.31 289.93 216.291Z" fill="#F5F5F5"/>
<path d="M389.95 224.53C378.356 225.48 364.463 227.751 359.483 233.396C357.861 235.349 356.576 237.558 355.682 239.934H336.533C335.637 237.559 334.352 235.35 332.732 233.396C327.733 227.78 313.726 225.47 302.322 224.53H389.95Z" fill="#E6E6E6"/>
<path d="M338.557 216.348L340.116 198.605H317.603L316.054 216.348H338.557Z" fill="#EBEBEB"/>
<path d="M338.557 216.348L340.116 198.605H341.323L339.774 216.348H338.557Z" fill="#E0E0E0"/>
<path d="M336.419 214.542L337.654 200.411H319.741L318.506 214.542H336.419Z" fill="#F0F0F0"/>
<path d="M335.051 213.373L336.077 201.57H321.119L320.083 213.373H335.051Z" fill="#FAFAFA"/>
<path d="M345.856 216.29H368.464L365.955 187.62H343.347L345.856 216.29Z" fill="#E6E6E6"/>
<path d="M345.856 216.29H344.782L342.273 187.62H343.347L345.856 216.29Z" fill="#E0E0E0"/>
<path d="M347.908 213.373H365.907L363.912 190.547H345.913L347.908 213.373Z" fill="#F0F0F0"/>
<path d="M349.229 211.491H364.263L362.591 192.428H347.557L349.229 211.491Z" fill="#FAFAFA"/>
<path d="M356.822 201C356.58 201.244 356.292 201.437 355.975 201.57C355.658 201.702 355.318 201.77 354.974 201.77C354.63 201.77 354.29 201.702 353.973 201.57C353.656 201.437 353.368 201.244 353.126 201C352.882 200.758 352.688 200.47 352.556 200.153C352.424 199.835 352.356 199.495 352.356 199.152C352.356 198.808 352.424 198.468 352.556 198.15C352.688 197.833 352.882 197.545 353.126 197.303C353.617 196.815 354.281 196.541 354.974 196.541C355.666 196.541 356.331 196.815 356.822 197.303C357.31 197.795 357.584 198.459 357.584 199.152C357.584 199.844 357.31 200.509 356.822 201Z" fill="#EBEBEB"/>
<path d="M355.71 204.202C355.887 204.023 356.098 203.88 356.331 203.783C356.563 203.686 356.813 203.635 357.065 203.635C357.317 203.635 357.566 203.686 357.799 203.783C358.031 203.88 358.242 204.023 358.419 204.202C358.694 204.467 358.882 204.809 358.96 205.182C359.039 205.555 359.002 205.944 358.857 206.296C358.711 206.649 358.463 206.95 358.144 207.159C357.825 207.369 357.451 207.478 357.069 207.472C356.687 207.48 356.311 207.372 355.991 207.163C355.671 206.955 355.421 206.654 355.274 206.301C355.127 205.948 355.09 205.559 355.168 205.184C355.246 204.81 355.435 204.468 355.71 204.202Z" fill="#F0F0F0"/>
<path d="M164.109 304.574H186.128L174.553 210.303C174.275 208.334 173.308 206.527 171.824 205.203C170.34 203.879 168.435 203.124 166.447 203.072H70.3229L84.4445 304.574H164.109Z" fill="#F5F5F5"/>
<path d="M94.2802 304.574H72.2235L60.6773 210.303C60.5366 209.397 60.5966 208.47 60.853 207.589C61.1095 206.708 61.5561 205.894 62.1615 205.204C62.7669 204.515 63.5162 203.966 64.3566 203.598C65.197 203.229 66.108 203.05 67.0253 203.072H74.6278C76.6054 203.139 78.496 203.901 79.9679 205.223C81.4398 206.546 82.3989 208.344 82.6769 210.303L94.2802 304.574Z" fill="#F0F0F0"/>
<path d="M102.386 304.46L98.4046 258.845C98.3147 257.854 97.8888 256.924 97.1974 256.208C96.506 255.493 95.5907 255.035 94.6033 254.911L92.9783 254.683C91.658 254.516 90.4349 253.901 89.5131 252.941C88.5913 251.982 88.0266 250.735 87.9131 249.409L87.1814 241.094C87.1116 240.288 87.2099 239.478 87.4699 238.712C87.7299 237.947 88.1461 237.244 88.692 236.649C89.2378 236.053 89.9016 235.577 90.641 235.251C91.3805 234.925 92.1797 234.756 92.9878 234.755H56.1918C55.3781 234.751 54.5727 234.918 53.8275 235.245C53.0822 235.571 52.4136 236.05 51.8648 236.651C51.316 237.252 50.8991 237.961 50.641 238.733C50.383 239.504 50.2894 240.321 50.3664 241.132L51.0886 249.447C51.2132 250.77 51.7863 252.01 52.7128 252.962C53.6392 253.915 54.8634 254.522 56.1823 254.683L57.8168 254.892C58.8048 255.014 59.7211 255.471 60.4128 256.187C61.1046 256.903 61.53 257.835 61.6181 258.826L65.6094 304.441C65.7496 306.046 66.4859 307.54 67.6733 308.629C68.8607 309.718 70.4129 310.323 72.024 310.324H108.82C107.209 310.328 105.654 309.728 104.463 308.643C103.272 307.557 102.531 306.065 102.386 304.46Z" fill="#E6E6E6"/>
<path d="M203.661 247.451C203.961 243.996 205.545 240.779 208.102 238.435C210.658 236.091 214.001 234.792 217.469 234.793H185.434C181.965 234.792 178.621 236.091 176.063 238.434C173.505 240.778 171.918 243.995 171.616 247.451L168.461 283.563H200.515L203.661 247.451Z" fill="#E6E6E6"/>
<path d="M231.695 234.793H217.44C213.972 234.792 210.63 236.092 208.073 238.435C205.517 240.779 203.932 243.996 203.632 247.451L200.468 283.563H124.196L121.031 247.451C120.73 243.997 119.144 240.781 116.588 238.438C114.032 236.094 110.691 234.794 107.223 234.793H92.9688C92.1607 234.794 91.3615 234.963 90.622 235.289C89.8826 235.615 89.2188 236.091 88.673 236.687C88.1271 237.282 87.711 237.985 87.4509 238.75C87.1909 239.516 87.0926 240.326 87.1624 241.132L87.8941 249.447C88.0166 250.769 88.5878 252.009 89.5126 252.962C90.4375 253.914 91.6605 254.522 92.9783 254.683L94.6223 254.892C95.611 255.012 96.5282 255.469 97.2203 256.185C97.9123 256.902 98.3372 257.834 98.4236 258.826L102.415 304.441C102.555 306.046 103.291 307.54 104.479 308.629C105.666 309.718 107.218 310.323 108.829 310.324H215.891C217.501 310.322 219.052 309.718 220.238 308.628C221.424 307.539 222.158 306.045 222.296 304.441L226.288 258.826C226.376 257.835 226.801 256.903 227.493 256.187C228.185 255.471 229.101 255.014 230.089 254.892L231.723 254.683C233.045 254.518 234.271 253.904 235.195 252.944C236.118 251.984 236.684 250.736 236.798 249.409L237.53 241.094C237.593 240.289 237.489 239.481 237.224 238.719C236.959 237.957 236.539 237.258 235.991 236.666C235.443 236.074 234.779 235.602 234.039 235.28C233.3 234.958 232.502 234.792 231.695 234.793Z" fill="#F0F0F0"/>
<path d="M237.577 354.047C339.339 354.047 421.833 349.231 421.833 343.29C421.833 337.349 339.339 332.532 237.577 332.532C135.816 332.532 53.3219 337.349 53.3219 343.29C53.3219 349.231 135.816 354.047 237.577 354.047Z" fill="#F5F5F5"/>
<path d="M392.231 317.071C392.231 316.767 391.176 286.053 386.206 281.216C381.454 276.55 375.866 281.045 375.629 281.216L375.021 280.484C375.087 280.427 381.445 275.238 386.862 280.484C392.117 285.587 393.134 315.712 393.181 316.995L392.231 317.071Z" fill="#407BFF"/>
<path d="M392.658 323.105C392.516 321.604 389.237 286.157 402.608 270.838L403.321 271.456C390.216 286.499 393.571 322.668 393.609 323.029L392.658 323.105Z" fill="#407BFF"/>
<path d="M392.335 319.304L391.385 319.237C391.385 318.819 393.989 277.737 384.229 268.757L384.875 267.987C394.968 277.291 392.478 317.546 392.335 319.304Z" fill="#407BFF"/>
<path d="M393.609 319.228H392.658C392.658 318.088 392.982 291.403 400.594 287.041C401.323 286.569 402.155 286.279 403.02 286.194C403.884 286.11 404.757 286.234 405.564 286.556C410.173 288.457 412.453 296.649 412.548 297.01L411.598 297.266C411.598 297.181 409.346 289.179 405.155 287.45C404.483 287.182 403.755 287.081 403.036 287.156C402.316 287.23 401.625 287.478 401.021 287.877C393.922 291.945 393.609 318.952 393.609 319.228Z" fill="#407BFF"/>
<path d="M390.663 319.247L389.712 319.19C389.712 318.981 390.853 298.169 385.246 290.852C383.897 289.094 382.443 288.267 380.913 288.362C377.273 288.619 374.194 293.969 374.165 294.064L373.339 293.598C373.472 293.361 376.693 287.744 380.846 287.45C382.699 287.317 384.448 288.286 385.997 290.301C391.822 297.865 390.71 318.354 390.663 319.247Z" fill="#407BFF"/>
<path d="M391.727 322.088C391.575 320.064 388.04 272.435 394.264 264.015L395.025 264.585C389.019 272.71 392.639 321.518 392.668 322.012L391.727 322.088Z" fill="#407BFF"/>
<path d="M407.217 291.45C407.217 291.45 403.492 292.819 404.604 296.059C405.716 299.3 417.471 304.612 417.471 304.612C417.471 304.612 422.403 300.098 417.87 292.752C413.337 285.406 407.312 289.132 407.217 291.45Z" fill="#407BFF"/>
<path opacity="0.2" d="M407.217 291.45C407.217 291.45 403.492 292.819 404.604 296.059C405.716 299.3 417.471 304.612 417.471 304.612C417.471 304.612 422.403 300.098 417.87 292.752C413.337 285.406 407.312 289.132 407.217 291.45Z" fill="white"/>
<path d="M391.043 285.283C391.043 285.283 395.006 285.121 395.224 288.533C395.443 291.945 386.671 301.391 386.671 301.391C386.671 301.391 380.39 299.119 381.739 290.605C383.089 282.09 390.055 283.192 391.043 285.283Z" fill="#407BFF"/>
<path opacity="0.2" d="M391.043 285.283C391.043 285.283 395.006 285.121 395.224 288.533C395.443 291.945 386.671 301.391 386.671 301.391C386.671 301.391 380.39 299.119 381.739 290.605C383.089 282.09 390.055 283.192 391.043 285.283Z" fill="white"/>
<path d="M387.726 268.938C387.726 268.938 390.368 268.653 390.159 267.037C389.95 265.421 379.886 261.288 374.004 267.987C374.004 267.987 377.805 274.506 383.288 274.592C388.772 274.677 387.726 268.938 387.726 268.938Z" fill="#407BFF"/>
<path opacity="0.2" d="M387.726 268.938C387.726 268.938 390.368 268.653 390.159 267.037C389.95 265.421 379.886 261.288 374.004 267.987C374.004 267.987 377.805 274.506 383.288 274.592C388.772 274.677 387.726 268.938 387.726 268.938Z" fill="white"/>
<path d="M392.611 265.032C392.611 265.032 390.216 266.191 389.551 264.709C388.886 263.226 395.253 254.398 403.806 256.945C403.806 256.945 404.034 264.49 399.415 267.474C394.797 270.458 392.611 265.032 392.611 265.032Z" fill="#407BFF"/>
<path opacity="0.2" d="M392.611 265.032C392.611 265.032 390.216 266.191 389.551 264.709C388.886 263.226 395.253 254.398 403.806 256.945C403.806 256.945 404.034 264.49 399.415 267.474C394.797 270.458 392.611 265.032 392.611 265.032Z" fill="white"/>
<path d="M380.124 290.149C380.124 290.149 381.948 288.676 379.981 287.953C378.014 287.231 368.359 287.44 368.254 297C368.254 297 379.497 298.901 380.894 295.233C382.291 291.565 380.124 290.149 380.124 290.149Z" fill="#407BFF"/>
<path opacity="0.2" d="M380.124 290.149C380.124 290.149 381.948 288.676 379.981 287.953C378.014 287.231 368.359 287.44 368.254 297C368.254 297 379.497 298.901 380.894 295.233C382.291 291.565 380.124 290.149 380.124 290.149Z" fill="white"/>
<path d="M403.026 268.7C403.026 268.7 401.211 267.227 403.178 266.514C405.145 265.802 414.791 265.992 414.896 275.561C414.896 275.561 403.653 277.462 402.257 273.784C400.86 270.107 403.026 268.7 403.026 268.7Z" fill="#407BFF"/>
<path opacity="0.2" d="M403.026 268.7C403.026 268.7 401.211 267.227 403.178 266.514C405.145 265.802 414.791 265.992 414.896 275.561C414.896 275.561 403.653 277.462 402.257 273.784C400.86 270.107 403.026 268.7 403.026 268.7Z" fill="white"/>
<path d="M397.087 276.407C397.087 276.407 396.925 274.611 398.37 275.314C399.814 276.017 404.851 281.444 399.634 286.594C399.634 286.594 392.611 281.396 393.875 278.688C395.139 275.979 397.087 276.407 397.087 276.407Z" fill="#407BFF"/>
<path opacity="0.2" d="M397.087 276.407C397.087 276.407 396.925 274.611 398.37 275.314C399.814 276.017 404.851 281.444 399.634 286.594C399.634 286.594 392.611 281.396 393.875 278.688C395.139 275.979 397.087 276.407 397.087 276.407Z" fill="white"/>
<path d="M378.47 278.954C378.47 278.954 379.563 277.528 377.967 277.348C376.37 277.167 369.224 279.077 370.887 286.224C370.887 286.224 379.601 285.568 379.972 282.603C380.342 279.638 378.47 278.954 378.47 278.954Z" fill="#407BFF"/>
<path opacity="0.2" d="M378.47 278.954C378.47 278.954 379.563 277.528 377.967 277.348C376.37 277.167 369.224 279.077 370.887 286.224C370.887 286.224 379.601 285.568 379.972 282.603C380.342 279.638 378.47 278.954 378.47 278.954Z" fill="white"/>
<path d="M407.911 345.723H378.014L374.793 312.994H411.132L407.911 345.723Z" fill="#407BFF"/>
<path opacity="0.5" d="M407.911 345.723H378.014L374.793 312.994H411.132L407.911 345.723Z" fill="white"/>
<path d="M412.738 309.383H373.196V316.605H412.738V309.383Z" fill="#407BFF"/>
<path opacity="0.2" d="M412.738 309.383H373.196V316.605H412.738V309.383Z" fill="white"/>
<path d="M371.856 28.9845H293.693V88.0272H371.856V28.9845Z" fill="white"/>
<path d="M372.806 88.9776H369.48V87.077H370.906V85.6515H372.806V88.9776Z" fill="#407BFF"/>
<path d="M364.586 88.9775H359.692V87.0769H364.586V88.9775ZM354.798 88.9775H349.904V87.0769H354.798V88.9775ZM345.01 88.9775H340.116V87.0769H345.01V88.9775ZM335.222 88.9775H330.328V87.0769H335.222V88.9775ZM325.434 88.9775H320.539V87.0769H325.434V88.9775ZM315.645 88.9775H310.751V87.0769H315.645V88.9775ZM305.857 88.9775H300.963V87.0769H305.857V88.9775Z" fill="#407BFF"/>
<path d="M296.069 88.9776H292.743V85.6515H294.643V87.077H296.069V88.9776Z" fill="#407BFF"/>
<path d="M294.643 80.7098H292.743V75.7777H294.643V80.7098ZM294.643 70.8456H292.743V65.904H294.643V70.8456ZM294.643 60.9719H292.743V56.0683H294.643V60.9719ZM294.643 51.0982H292.743V46.1661H294.643V51.0982ZM294.643 41.234H292.743V36.2924H294.643V41.234Z" fill="#407BFF"/>
<path d="M294.643 31.3603H292.743V28.0342H296.069V29.9348H294.643V31.3603Z" fill="#407BFF"/>
<path d="M364.586 29.9348H359.692V28.0342H364.586V29.9348ZM354.798 29.9348H349.904V28.0342H354.798V29.9348ZM345.01 29.9348H340.116V28.0342H345.01V29.9348ZM335.222 29.9348H330.328V28.0342H335.222V29.9348ZM325.434 29.9348H320.539V28.0342H325.434V29.9348ZM315.645 29.9348H310.751V28.0342H315.645V29.9348ZM305.857 29.9348H300.963V28.0342H305.857V29.9348Z" fill="#407BFF"/>
<path d="M372.806 31.3603H370.906V29.9348H369.48V28.0342H372.806V31.3603Z" fill="#407BFF"/>
<path d="M372.806 80.7098H370.906V75.7777H372.806V80.7098ZM372.806 70.8456H370.906V65.904H372.806V70.8456ZM372.806 60.9719H370.906V56.0683H372.806V60.9719ZM372.806 51.0982H370.906V46.1661H372.806V51.0982ZM372.806 41.234H370.906V36.2924H372.806V41.234Z" fill="#407BFF"/>
<path opacity="0.2" d="M367.095 83.2756V33.736L298.435 33.736V83.2756H367.095Z" fill="#407BFF"/>
<g opacity="0.4">
<path d="M325.215 65.4859L327.049 62.9296C326.348 61.5592 325.986 60.0405 325.994 58.5011C325.994 53.9206 329.026 50.2144 332.77 50.2144C333.772 50.2191 334.756 50.4879 335.621 50.9937L336.885 49.2451C335.602 48.6066 334.193 48.2625 332.76 48.2378C325.329 48.2378 319.314 58.5011 319.314 58.5011C320.925 61.1081 322.914 63.4619 325.215 65.4859Z" fill="#407BFF"/>
<path d="M339.365 50.7561L345.304 42.5075C345.432 42.3265 345.484 42.1027 345.448 41.8842C345.413 41.6656 345.293 41.4697 345.114 41.3386C344.999 41.2585 344.866 41.208 344.727 41.1914C344.588 41.1749 344.447 41.1927 344.316 41.2435C344.35 41.3625 344.357 41.4875 344.335 41.6094C344.314 41.7312 344.265 41.8465 344.193 41.9468L320.435 74.9225C320.344 75.0478 320.219 75.1436 320.074 75.1981C320.113 75.3505 320.195 75.4886 320.31 75.5961C320.425 75.7036 320.568 75.7761 320.722 75.805C320.877 75.834 321.037 75.8182 321.183 75.7595C321.329 75.7008 321.455 75.6016 321.547 75.4737L327.515 67.1775C329.077 68.1732 330.88 68.7251 332.732 68.774C340.163 68.774 346.188 58.5012 346.188 58.5012C344.382 55.5424 342.072 52.9214 339.365 50.7561ZM332.77 66.7974C331.344 66.7773 329.972 66.2482 328.902 65.3054L329.852 63.9464C330.66 64.603 331.663 64.9709 332.703 64.9918C335.63 64.9918 338.006 62.0838 338.006 58.5012C338.021 57.0081 337.58 55.5461 336.742 54.3103L337.692 52.9514C338.857 54.5659 339.473 56.5109 339.451 58.5012C339.546 63.0816 336.514 66.7974 332.77 66.7974Z" fill="#407BFF"/>
<path d="M332.77 52.0105C329.843 52.0105 327.467 54.9184 327.467 58.5011C327.468 59.5326 327.674 60.5537 328.075 61.5041L334.613 52.4191C334.036 52.1508 333.407 52.0114 332.77 52.0105Z" fill="#407BFF"/>
</g>
<path d="M409.146 93.6056V177.043L396.868 189.919H337.464V93.6056H409.146Z" fill="white"/>
<path d="M410.097 95.9814H408.196V94.5559H406.771V92.6553H410.097V95.9814Z" fill="#407BFF"/>
<path d="M402.361 185.529L401.031 184.218L404.205 180.891L405.583 182.203L402.361 185.529ZM408.7 178.877L407.331 177.556L408.196 176.653V174.078H410.097V177.413L408.7 178.877ZM410.097 169.478H408.196V164.888H410.097V169.478ZM410.097 160.289H408.196V155.699H410.097V160.289ZM410.097 151.099H408.196V146.509H410.097V151.099ZM410.097 141.91H408.196V137.32H410.097V141.91ZM410.097 132.73H408.196V128.13H410.097V132.73ZM410.097 123.54H408.196V118.941H410.097V123.54ZM410.097 114.351H408.196V109.761H410.097V114.351ZM410.097 105.161H408.196V100.562H410.097V105.161Z" fill="#407BFF"/>
<path d="M397.267 190.87H394.483V188.969H396.46L397.819 187.544L399.187 188.855L397.267 190.87Z" fill="#407BFF"/>
<path d="M389.522 190.87H384.552V188.969H389.522V190.87ZM379.582 190.87H374.612V188.969H379.582V190.87ZM369.642 190.87H364.681V188.969H369.67L369.642 190.87ZM359.711 190.87H354.741V188.969H359.711V190.87ZM349.771 190.87H344.801V188.969H349.771V190.87Z" fill="#407BFF"/>
<path d="M339.831 190.87H336.505V187.544H338.405V188.969H339.831V190.87Z" fill="#407BFF"/>
<path d="M338.405 182.726H336.505V177.908H338.405V182.726ZM338.405 173.089H336.505V168.271H338.405V173.089ZM338.405 163.453H336.505V158.626H338.405V163.453ZM338.405 153.808H336.505V148.99H338.405V153.808ZM338.405 144.172H336.505V139.353H338.405V144.172ZM338.405 134.535H336.505V129.717H338.405V134.535ZM338.405 124.899H336.505V120.081H338.405V124.899ZM338.405 115.254H336.505V110.436H338.405V115.254ZM338.405 105.618H336.505V100.799H338.405V105.618Z" fill="#407BFF"/>
<path d="M338.405 95.9814H336.505V92.6553H339.831V94.5559H338.405V95.9814Z" fill="#407BFF"/>
<path d="M402.304 94.5559H397.838V92.6553H402.304V94.5559ZM393.381 94.5559H388.914V92.6553H393.428L393.381 94.5559ZM384.457 94.5559H379.991V92.6553H384.457V94.5559ZM375.534 94.5559H371.067V92.6553H375.534V94.5559ZM366.61 94.5559H362.144V92.6553H366.61V94.5559ZM357.687 94.5559H353.221V92.6553H357.687V94.5559ZM348.764 94.5559H344.297V92.6553H348.764V94.5559Z" fill="#407BFF"/>
<path d="M396.868 189.919V177.043H409.146" fill="#407BFF"/>
<path d="M397.809 189.919H395.908V185.168H397.809V189.919ZM397.809 180.416H395.908V176.092H398.237V177.993H397.809V180.416ZM407.74 177.993H402.988V176.092H407.74V177.993Z" fill="#407BFF"/>
<mask id="mask0_36_755" style="mask-type:luminance" maskUnits="userSpaceOnUse" x="396" y="177" width="12" height="13">
<mask id="mask1_36_755" style="mask-type:luminance" maskUnits="userSpaceOnUse" x="396" y="177" width="14" height="13">
<path d="M396.868 189.919V177.043H409.146" fill="white"/>
</mask>
<g mask="url(#mask1_36_755)">
<path d="M397.809 189.919H395.908V185.168H397.809V189.919ZM397.809 180.416H395.908V176.092H398.237V177.993H397.809V180.416ZM407.74 177.993H402.988V176.092H407.74V177.993Z" fill="white"/>
</g>
</mask>
<g mask="url(#mask0_36_755)">
<path opacity="0.7" d="M396.868 189.919V177.043H409.146" fill="white"/>
</g>
<g opacity="0.4">
<path d="M364.092 150.263L366.335 147.155C365.484 145.487 365.044 143.64 365.052 141.767C365.052 136.179 368.739 131.665 373.301 131.665C374.527 131.669 375.73 131.997 376.788 132.616L378.328 130.487C376.766 129.703 375.048 129.281 373.301 129.252C364.244 129.252 356.908 141.767 356.908 141.767C358.868 144.939 361.29 147.803 364.092 150.263Z" fill="#407BFF"/>
<path d="M381.34 132.321L388.572 122.267C388.704 122.09 388.773 121.874 388.771 121.654C388.768 121.433 388.693 121.219 388.557 121.045C388.421 120.872 388.231 120.747 388.018 120.691C387.804 120.636 387.578 120.652 387.375 120.737C387.413 120.882 387.42 121.034 387.394 121.181C387.367 121.329 387.309 121.469 387.223 121.592L358.324 161.762C358.213 161.918 358.057 162.037 357.877 162.104C357.933 162.332 358.068 162.534 358.257 162.674C358.43 162.795 358.635 162.861 358.846 162.864C359.008 162.864 359.168 162.825 359.312 162.75C359.455 162.676 359.579 162.568 359.673 162.436L366.943 152.335C368.853 153.527 371.049 154.184 373.301 154.235C382.348 154.235 389.693 141.729 389.693 141.729C387.475 138.133 384.649 134.949 381.34 132.321ZM373.301 151.86C371.549 151.852 369.859 151.207 368.549 150.044L369.746 148.391C370.736 149.21 371.978 149.663 373.263 149.674C376.826 149.674 379.725 146.129 379.725 141.767C379.755 139.95 379.232 138.167 378.223 136.655L379.421 135.001C380.831 136.973 381.577 139.343 381.549 141.767C381.549 147.346 377.862 151.86 373.301 151.86Z" fill="#407BFF"/>
<path d="M373.301 133.851C369.737 133.851 366.838 137.396 366.838 141.767C366.837 143.021 367.089 144.262 367.58 145.416L375.543 134.355C374.841 134.026 374.076 133.854 373.301 133.851Z" fill="#407BFF"/>
</g>
<path d="M339.422 178.43L337.569 170.98H315.408L313.555 178.43H281.235V236.789H346.739V178.43H339.422Z" fill="white"/>
<path d="M347.69 237.739H343.062V235.838H345.751V235.677H347.652L347.69 237.739ZM338.348 237.739H333.597V235.838H338.348V237.739ZM328.845 237.739H324.094V235.838H328.845V237.739ZM319.342 237.739H314.59V235.838H319.342V237.739ZM309.839 237.739H305.087V235.838H309.839V237.739ZM300.336 237.739H295.584V235.838H300.336V237.739ZM290.833 237.739H286.081V235.838H290.833V237.739ZM281.33 237.739H280.284V232.142H282.185V236.789H281.292L281.33 237.739ZM347.69 230.925H345.789V226.174H347.69V230.925ZM282.185 227.39H280.284V222.639H282.185V227.39ZM347.69 221.422H345.789V216.671H347.69V221.422ZM282.185 217.887H280.284V213.135H282.185V217.887ZM347.69 211.919H345.789V207.168H347.69V211.919ZM282.185 208.384H280.284V203.632H282.185V208.384ZM347.69 202.416H345.789V197.664H347.69V202.416ZM282.185 198.881H280.284V194.129H282.185V198.881ZM347.69 192.913H345.789V188.161H347.69V192.913ZM282.185 189.378H280.284V184.626H282.185V189.378ZM347.69 183.41H345.789V178.658H347.69V183.41ZM282.185 179.875H280.284V177.48H284.542V179.38H282.185V179.875ZM342.225 179.38H338.681L337.35 174.049L339.194 173.593L340.144 177.48H342.206L342.225 179.38ZM313.051 179.38H308.299V177.48H313.051V179.38ZM303.548 179.38H298.796V177.48H303.548V179.38ZM294.045 179.38H289.293V177.48H294.045V179.38ZM315.503 174.543L313.659 174.087L314.666 170.029H316.729V171.93H316.149L315.503 174.543ZM335.735 171.93H330.983V170.029H335.735V171.93ZM326.232 171.93H321.48V170.029H326.232V171.93Z" fill="#407BFF"/>
<mask id="mask2_36_755" style="mask-type:luminance" maskUnits="userSpaceOnUse" x="281" y="170" width="66" height="67">
<mask id="mask3_36_755" style="mask-type:luminance" maskUnits="userSpaceOnUse" x="281" y="170" width="66" height="67">
<path d="M339.422 178.43L337.569 170.98H315.408L313.555 178.43H281.235V236.789H346.739V178.43H339.422Z" fill="white"/>
</mask>
<g mask="url(#mask3_36_755)">
<path d="M347.69 237.739H343.062V235.838H345.751V235.677H347.652L347.69 237.739ZM338.348 237.739H333.597V235.838H338.348V237.739ZM328.845 237.739H324.094V235.838H328.845V237.739ZM319.342 237.739H314.59V235.838H319.342V237.739ZM309.839 237.739H305.087V235.838H309.839V237.739ZM300.336 237.739H295.584V235.838H300.336V237.739ZM290.833 237.739H286.081V235.838H290.833V237.739ZM281.33 237.739H280.284V232.142H282.185V236.789H281.292L281.33 237.739ZM347.69 230.925H345.789V226.174H347.69V230.925ZM282.185 227.39H280.284V222.639H282.185V227.39ZM347.69 221.422H345.789V216.671H347.69V221.422ZM282.185 217.887H280.284V213.135H282.185V217.887ZM347.69 211.919H345.789V207.168H347.69V211.919ZM282.185 208.384H280.284V203.632H282.185V208.384ZM347.69 202.416H345.789V197.664H347.69V202.416ZM282.185 198.881H280.284V194.129H282.185V198.881ZM347.69 192.913H345.789V188.161H347.69V192.913ZM282.185 189.378H280.284V184.626H282.185V189.378ZM347.69 183.41H345.789V178.658H347.69V183.41ZM282.185 179.875H280.284V177.48H284.542V179.38H282.185V179.875ZM342.225 179.38H338.681L337.35 174.049L339.194 173.593L340.144 177.48H342.206L342.225 179.38ZM313.051 179.38H308.299V177.48H313.051V179.38ZM303.548 179.38H298.796V177.48H303.548V179.38ZM294.045 179.38H289.293V177.48H294.045V179.38ZM315.503 174.543L313.659 174.087L314.666 170.029H316.729V171.93H316.149L315.503 174.543ZM335.735 171.93H330.983V170.029H335.735V171.93ZM326.232 171.93H321.48V170.029H326.232V171.93Z" fill="white"/>
</g>
</mask>
<g mask="url(#mask2_36_755)">
<path opacity="0.2" d="M339.422 178.43L337.569 170.98H315.408L313.555 178.43H281.235V236.789H346.739V178.43H339.422Z" fill="#407BFF"/>
</g>
<path d="M344.098 236.789H278.944L272.292 188.77H337.445L344.098 236.789Z" fill="white"/>
<path d="M345.181 237.739H341.722V235.838H343.005L342.824 234.565L344.706 234.308L345.181 237.739Z" fill="#407BFF"/>
<path d="M337.075 237.739H332.428V235.838H337.075V237.739ZM327.781 237.739H323.105V235.838H327.752L327.781 237.739ZM318.487 237.739H313.84V235.838H318.487V237.739ZM309.193 237.739H304.555V235.838H309.193V237.739ZM299.908 237.739H295.261V235.838H299.908V237.739ZM290.614 237.739H285.967V235.838H290.614V237.739Z" fill="#407BFF"/>
<path d="M281.32 237.739H278.118L277.68 234.565L279.562 234.308L279.771 235.838H281.32V237.739Z" fill="#407BFF"/>
<path d="M277.015 229.756L276.341 224.948L278.241 224.682L278.906 229.49L277.015 229.756ZM275.675 220.13L275.01 215.321L276.911 215.055L277.576 219.873L275.675 220.13ZM274.345 210.503L273.68 205.695L275.58 205.428L276.245 210.246L274.345 210.503ZM273.014 200.876L272.34 196.068L274.24 195.811L274.906 200.62L273.014 200.876Z" fill="#407BFF"/>
<path d="M271.675 191.259L271.199 187.819H274.668V189.72H273.385L273.566 190.993L271.675 191.259Z" fill="#407BFF"/>
<path d="M330.423 189.72H325.776V187.819H330.423V189.72ZM321.129 189.72H316.453V187.819H321.1L321.129 189.72ZM311.835 189.72H307.188V187.819H311.835V189.72ZM302.541 189.72H297.903V187.819H302.541V189.72ZM293.256 189.72H288.609V187.819H293.256V189.72ZM283.962 189.72H279.315V187.819H283.962V189.72Z" fill="#407BFF"/>
<path d="M336.828 191.259L336.609 189.72H335.07V187.819H338.272L338.709 190.993L336.828 191.259Z" fill="#407BFF"/>
<path d="M342.159 229.756L341.494 224.938L343.394 224.682L344.06 229.49L342.159 229.756ZM340.829 220.13L340.163 215.321L342.064 215.055L342.729 219.873L340.829 220.13ZM339.489 210.503L338.823 205.695L340.724 205.429L341.399 210.247L339.489 210.503ZM338.158 200.877L337.493 196.068L339.394 195.802L340.059 200.62L338.158 200.877Z" fill="#407BFF"/>
<g opacity="0.4">
<path d="M298.853 219.712L300.697 217.165C299.996 215.794 299.634 214.276 299.642 212.736C299.642 208.156 302.674 204.45 306.408 204.45C307.41 204.459 308.392 204.728 309.259 205.229L310.514 203.48C309.231 202.841 307.822 202.497 306.389 202.473C298.967 202.473 292.942 212.736 292.942 212.736C294.556 215.342 296.548 217.693 298.853 219.712Z" fill="#407BFF"/>
<path d="M313.013 204.991L318.943 196.733C319.043 196.59 319.095 196.418 319.092 196.244C319.089 196.069 319.03 195.899 318.924 195.76C318.819 195.62 318.672 195.518 318.504 195.468C318.337 195.417 318.158 195.421 317.993 195.479C318.025 195.598 318.03 195.723 318.009 195.844C317.987 195.965 317.94 196.081 317.869 196.182L294.111 229.158C294.017 229.284 293.888 229.379 293.741 229.433C293.788 229.62 293.899 229.785 294.054 229.899C294.197 229.998 294.366 230.051 294.539 230.051C294.671 230.053 294.801 230.022 294.918 229.963C295.036 229.903 295.137 229.816 295.214 229.709L301.248 221.422C302.809 222.411 304.609 222.959 306.456 223.009C313.887 223.009 319.912 212.746 319.912 212.746C318.082 209.778 315.747 207.154 313.013 204.991ZM306.408 221.023C304.983 221.006 303.611 220.481 302.541 219.541L303.491 218.172C304.295 218.835 305.3 219.207 306.342 219.227C309.269 219.227 311.645 216.319 311.645 212.736C311.658 211.245 311.221 209.784 310.39 208.545L311.34 207.187C312.497 208.804 313.11 210.748 313.089 212.736C313.184 217.317 310.153 221.023 306.408 221.023Z" fill="#407BFF"/>
<path d="M306.408 206.217C303.481 206.217 301.106 209.125 301.106 212.708C301.106 213.739 301.313 214.76 301.714 215.711L308.252 206.626C307.675 206.356 307.045 206.217 306.408 206.217Z" fill="#407BFF"/>
</g>
<path d="M236.627 67.301L240.675 62.3403C241.378 61.4563 242.267 60.7376 243.279 60.235C244.29 59.7325 245.4 59.4585 246.529 59.4324H271.789C272.808 59.405 273.816 59.6627 274.697 60.1764C275.578 60.6901 276.299 61.4395 276.778 62.3403L279.334 67.301C279.811 68.2007 280.53 68.9491 281.41 69.4613C282.29 69.9735 283.296 70.2292 284.314 70.1994H299.443C300.263 70.1757 301.079 70.3368 301.829 70.671C302.578 71.0051 303.244 71.5037 303.775 72.1297C304.306 72.7557 304.689 73.4932 304.897 74.2876C305.104 75.0819 305.13 75.9127 304.973 76.7185L292.401 160.602C292.098 162.387 291.187 164.012 289.822 165.2C288.457 166.389 286.722 167.068 284.912 167.121H165.354C164.532 167.147 163.716 166.987 162.965 166.653C162.214 166.32 161.547 165.821 161.015 165.195C160.483 164.569 160.099 163.831 159.891 163.036C159.683 162.241 159.656 161.409 159.814 160.602L172.386 76.747C172.692 74.9639 173.604 73.3411 174.969 72.1531C176.333 70.9652 178.066 70.2851 179.875 70.2279H230.802C231.927 70.1947 233.032 69.9155 234.039 69.4098C235.045 68.9042 235.929 68.1844 236.627 67.301Z" fill="#407BFF"/>
<path opacity="0.5" d="M236.627 67.301L240.675 62.3403C241.378 61.4563 242.267 60.7376 243.279 60.235C244.29 59.7325 245.4 59.4585 246.529 59.4324H271.789C272.808 59.405 273.816 59.6627 274.697 60.1764C275.578 60.6901 276.299 61.4395 276.778 62.3403L279.334 67.301C279.811 68.2007 280.53 68.9491 281.41 69.4613C282.29 69.9735 283.296 70.2292 284.314 70.1994H299.443C300.263 70.1757 301.079 70.3368 301.829 70.671C302.578 71.0051 303.244 71.5037 303.775 72.1297C304.306 72.7557 304.689 73.4932 304.897 74.2876C305.104 75.0819 305.13 75.9127 304.973 76.7185L292.401 160.602C292.098 162.387 291.187 164.012 289.822 165.2C288.457 166.389 286.722 167.068 284.912 167.121H165.354C164.532 167.147 163.716 166.987 162.965 166.653C162.214 166.32 161.547 165.821 161.015 165.195C160.483 164.569 160.099 163.831 159.891 163.036C159.683 162.241 159.656 161.409 159.814 160.602L172.386 76.747C172.692 74.9639 173.604 73.3411 174.969 72.1531C176.333 70.9652 178.066 70.2851 179.875 70.2279H230.802C231.927 70.1947 233.032 69.9155 234.039 69.4098C235.045 68.9042 235.929 68.1844 236.627 67.301Z" fill="white"/>
<path d="M167.188 78.1916H276.73C277.808 78.1828 278.876 78.3866 279.874 78.7914C280.873 79.1962 281.782 79.7939 282.549 80.5504C283.316 81.3069 283.926 82.2073 284.345 83.2001C284.763 84.1928 284.982 85.2584 284.988 86.3357L284.922 158.949C284.913 160.027 284.692 161.093 284.271 162.086C283.851 163.079 283.239 163.979 282.47 164.735C281.701 165.492 280.791 166.089 279.792 166.494C278.792 166.898 277.723 167.102 276.645 167.093H167.102C166.025 167.102 164.956 166.898 163.957 166.493C162.958 166.089 162.048 165.491 161.28 164.735C160.513 163.978 159.901 163.078 159.482 162.085C159.062 161.092 158.842 160.027 158.835 158.949L158.911 86.3357C158.919 85.2575 159.14 84.1915 159.561 83.1986C159.982 82.2058 160.594 81.3056 161.363 80.5493C162.131 79.793 163.041 79.1956 164.041 78.791C165.04 78.3865 166.11 78.1828 167.188 78.1916Z" fill="#407BFF"/>
<path opacity="0.7" d="M167.188 78.1916H276.73C277.808 78.1828 278.876 78.3866 279.874 78.7914C280.873 79.1962 281.782 79.7939 282.549 80.5504C283.316 81.3069 283.926 82.2073 284.345 83.2001C284.763 84.1928 284.982 85.2584 284.988 86.3357L284.922 158.949C284.913 160.027 284.692 161.093 284.271 162.086C283.851 163.079 283.239 163.979 282.47 164.735C281.701 165.492 280.791 166.089 279.792 166.494C278.792 166.898 277.723 167.102 276.645 167.093H167.102C166.025 167.102 164.956 166.898 163.957 166.493C162.958 166.089 162.048 165.491 161.28 164.735C160.513 163.978 159.901 163.078 159.482 162.085C159.062 161.092 158.842 160.027 158.835 158.949L158.911 86.3357C158.919 85.2575 159.14 84.1915 159.561 83.1986C159.982 82.2058 160.594 81.3056 161.363 80.5493C162.131 79.793 163.041 79.1956 164.041 78.791C165.04 78.3865 166.11 78.1828 167.188 78.1916Z" fill="white"/>
<path d="M203.604 97.2737H172.13C170.88 97.2737 169.868 98.2863 169.868 99.5354V152.734C169.868 153.983 170.88 154.995 172.13 154.995H203.604C204.853 154.995 205.866 153.983 205.866 152.734V99.5354C205.866 98.2863 204.853 97.2737 203.604 97.2737Z" fill="#407BFF"/>
<path d="M200.753 97.2737H169.279C168.03 97.2737 167.017 98.2863 167.017 99.5354V152.734C167.017 153.983 168.03 154.995 169.279 154.995H200.753C202.002 154.995 203.015 153.983 203.015 152.734V99.5354C203.015 98.2863 202.002 97.2737 200.753 97.2737Z" fill="#407BFF"/>
<path opacity="0.2" d="M200.753 97.2737H169.279C168.03 97.2737 167.017 98.2863 167.017 99.5354V152.734C167.017 153.983 168.03 154.995 169.279 154.995H200.753C202.002 154.995 203.015 153.983 203.015 152.734V99.5354C203.015 98.2863 202.002 97.2737 200.753 97.2737Z" fill="white"/>
<path d="M177.499 114.142H171.759C171.239 114.142 170.818 114.563 170.818 115.083V121.05C170.818 121.57 171.239 121.991 171.759 121.991H177.499C178.018 121.991 178.44 121.57 178.44 121.05V115.083C178.44 114.563 178.018 114.142 177.499 114.142Z" fill="#407BFF"/>
<path d="M187.601 114.142H181.861C181.341 114.142 180.92 114.563 180.92 115.083V121.05C180.92 121.57 181.341 121.991 181.861 121.991H187.601C188.12 121.991 188.541 121.57 188.541 121.05V115.083C188.541 114.563 188.12 114.142 187.601 114.142Z" fill="#407BFF"/>
<path d="M197.702 114.142H191.963C191.443 114.142 191.022 114.563 191.022 115.083V121.05C191.022 121.57 191.443 121.991 191.963 121.991H197.702C198.222 121.991 198.643 121.57 198.643 121.05V115.083C198.643 114.563 198.222 114.142 197.702 114.142Z" fill="#407BFF"/>
<path d="M177.499 123.683H171.759C171.239 123.683 170.818 124.104 170.818 124.624V130.592C170.818 131.111 171.239 131.532 171.759 131.532H177.499C178.018 131.532 178.44 131.111 178.44 130.592V124.624C178.44 124.104 178.018 123.683 177.499 123.683Z" fill="#407BFF"/>
<path d="M187.601 123.683H181.861C181.341 123.683 180.92 124.104 180.92 124.624V130.592C180.92 131.111 181.341 131.532 181.861 131.532H187.601C188.12 131.532 188.541 131.111 188.541 130.592V124.624C188.541 124.104 188.12 123.683 187.601 123.683Z" fill="#407BFF"/>
<path d="M197.702 123.683H191.963C191.443 123.683 191.022 124.104 191.022 124.624V130.592C191.022 131.111 191.443 131.532 191.963 131.532H197.702C198.222 131.532 198.643 131.111 198.643 130.592V124.624C198.643 124.104 198.222 123.683 197.702 123.683Z" fill="#407BFF"/>
<path d="M177.499 133.214H171.759C171.239 133.214 170.818 133.636 170.818 134.155V140.123C170.818 140.643 171.239 141.064 171.759 141.064H177.499C178.018 141.064 178.44 140.643 178.44 140.123V134.155C178.44 133.636 178.018 133.214 177.499 133.214Z" fill="#407BFF"/>
<path d="M187.601 133.214H181.861C181.341 133.214 180.92 133.636 180.92 134.155V140.123C180.92 140.643 181.341 141.064 181.861 141.064H187.601C188.12 141.064 188.541 140.643 188.541 140.123V134.155C188.541 133.636 188.12 133.214 187.601 133.214Z" fill="#407BFF"/>
<path d="M197.702 133.214H191.963C191.443 133.214 191.022 133.636 191.022 134.155V140.123C191.022 140.643 191.443 141.064 191.963 141.064H197.702C198.222 141.064 198.643 140.643 198.643 140.123V134.155C198.643 133.636 198.222 133.214 197.702 133.214Z" fill="#407BFF"/>
<path d="M187.601 142.746H181.861C181.341 142.746 180.92 143.167 180.92 143.687V149.655C180.92 150.174 181.341 150.596 181.861 150.596H187.601C188.12 150.596 188.541 150.174 188.541 149.655V143.687C188.541 143.167 188.12 142.746 187.601 142.746Z" fill="#407BFF"/>
<path d="M176.549 114.142H170.809C170.289 114.142 169.868 114.563 169.868 115.083V121.05C169.868 121.57 170.289 121.991 170.809 121.991H176.549C177.068 121.991 177.489 121.57 177.489 121.05V115.083C177.489 114.563 177.068 114.142 176.549 114.142Z" fill="#407BFF"/>
<path d="M186.65 114.142H180.91C180.391 114.142 179.97 114.563 179.97 115.083V121.05C179.97 121.57 180.391 121.991 180.91 121.991H186.65C187.17 121.991 187.591 121.57 187.591 121.05V115.083C187.591 114.563 187.17 114.142 186.65 114.142Z" fill="#407BFF"/>
<path d="M196.752 114.142H191.012C190.493 114.142 190.071 114.563 190.071 115.083V121.05C190.071 121.57 190.493 121.991 191.012 121.991H196.752C197.272 121.991 197.693 121.57 197.693 121.05V115.083C197.693 114.563 197.272 114.142 196.752 114.142Z" fill="#407BFF"/>
<path d="M176.549 123.683H170.809C170.289 123.683 169.868 124.104 169.868 124.624V130.592C169.868 131.111 170.289 131.532 170.809 131.532H176.549C177.068 131.532 177.489 131.111 177.489 130.592V124.624C177.489 124.104 177.068 123.683 176.549 123.683Z" fill="#407BFF"/>
<path d="M186.65 123.683H180.91C180.391 123.683 179.97 124.104 179.97 124.624V130.592C179.97 131.111 180.391 131.532 180.91 131.532H186.65C187.17 131.532 187.591 131.111 187.591 130.592V124.624C187.591 124.104 187.17 123.683 186.65 123.683Z" fill="#407BFF"/>
<path d="M196.752 123.683H191.012C190.493 123.683 190.071 124.104 190.071 124.624V130.592C190.071 131.111 190.493 131.532 191.012 131.532H196.752C197.272 131.532 197.693 131.111 197.693 130.592V124.624C197.693 124.104 197.272 123.683 196.752 123.683Z" fill="#407BFF"/>
<path d="M176.549 133.214H170.809C170.289 133.214 169.868 133.636 169.868 134.155V140.123C169.868 140.643 170.289 141.064 170.809 141.064H176.549C177.068 141.064 177.489 140.643 177.489 140.123V134.155C177.489 133.636 177.068 133.214 176.549 133.214Z" fill="#407BFF"/>
<path d="M186.65 133.214H180.91C180.391 133.214 179.97 133.636 179.97 134.155V140.123C179.97 140.643 180.391 141.064 180.91 141.064H186.65C187.17 141.064 187.591 140.643 187.591 140.123V134.155C187.591 133.636 187.17 133.214 186.65 133.214Z" fill="#407BFF"/>
<path d="M196.752 133.214H191.012C190.493 133.214 190.071 133.636 190.071 134.155V140.123C190.071 140.643 190.493 141.064 191.012 141.064H196.752C197.272 141.064 197.693 140.643 197.693 140.123V134.155C197.693 133.636 197.272 133.214 196.752 133.214Z" fill="#407BFF"/>
<path d="M186.65 142.746H180.91C180.391 142.746 179.97 143.167 179.97 143.687V149.655C179.97 150.174 180.391 150.596 180.91 150.596H186.65C187.17 150.596 187.591 150.174 187.591 149.655V143.687C187.591 143.167 187.17 142.746 186.65 142.746Z" fill="#407BFF"/>
<g opacity="0.5">
<path d="M176.549 114.142H170.809C170.289 114.142 169.868 114.563 169.868 115.083V121.05C169.868 121.57 170.289 121.991 170.809 121.991H176.549C177.068 121.991 177.489 121.57 177.489 121.05V115.083C177.489 114.563 177.068 114.142 176.549 114.142Z" fill="white"/>
<path d="M186.65 114.142H180.91C180.391 114.142 179.97 114.563 179.97 115.083V121.05C179.97 121.57 180.391 121.991 180.91 121.991H186.65C187.17 121.991 187.591 121.57 187.591 121.05V115.083C187.591 114.563 187.17 114.142 186.65 114.142Z" fill="white"/>
<path d="M196.752 114.142H191.012C190.493 114.142 190.071 114.563 190.071 115.083V121.05C190.071 121.57 190.493 121.991 191.012 121.991H196.752C197.272 121.991 197.693 121.57 197.693 121.05V115.083C197.693 114.563 197.272 114.142 196.752 114.142Z" fill="white"/>
<path d="M176.549 123.683H170.809C170.289 123.683 169.868 124.104 169.868 124.624V130.592C169.868 131.111 170.289 131.532 170.809 131.532H176.549C177.068 131.532 177.489 131.111 177.489 130.592V124.624C177.489 124.104 177.068 123.683 176.549 123.683Z" fill="white"/>
<path d="M186.65 123.683H180.91C180.391 123.683 179.97 124.104 179.97 124.624V130.592C179.97 131.111 180.391 131.532 180.91 131.532H186.65C187.17 131.532 187.591 131.111 187.591 130.592V124.624C187.591 124.104 187.17 123.683 186.65 123.683Z" fill="white"/>
<path d="M196.752 123.683H191.012C190.493 123.683 190.071 124.104 190.071 124.624V130.592C190.071 131.111 190.493 131.532 191.012 131.532H196.752C197.272 131.532 197.693 131.111 197.693 130.592V124.624C197.693 124.104 197.272 123.683 196.752 123.683Z" fill="white"/>
<path d="M176.549 133.214H170.809C170.289 133.214 169.868 133.636 169.868 134.155V140.123C169.868 140.643 170.289 141.064 170.809 141.064H176.549C177.068 141.064 177.489 140.643 177.489 140.123V134.155C177.489 133.636 177.068 133.214 176.549 133.214Z" fill="white"/>
<path d="M186.65 133.214H180.91C180.391 133.214 179.97 133.636 179.97 134.155V140.123C179.97 140.643 180.391 141.064 180.91 141.064H186.65C187.17 141.064 187.591 140.643 187.591 140.123V134.155C187.591 133.636 187.17 133.214 186.65 133.214Z" fill="white"/>
<path d="M196.752 133.214H191.012C190.493 133.214 190.071 133.636 190.071 134.155V140.123C190.071 140.643 190.493 141.064 191.012 141.064H196.752C197.272 141.064 197.693 140.643 197.693 140.123V134.155C197.693 133.636 197.272 133.214 196.752 133.214Z" fill="white"/>
<path d="M186.65 142.746H180.91C180.391 142.746 179.97 143.167 179.97 143.687V149.655C179.97 150.174 180.391 150.596 180.91 150.596H186.65C187.17 150.596 187.591 150.174 187.591 149.655V143.687C187.591 143.167 187.17 142.746 186.65 142.746Z" fill="white"/>
</g>
<path d="M198.634 102.586H170.818V109.732H198.634V102.586Z" fill="#407BFF"/>
<g opacity="0.2">
<path d="M176.758 106.15L178.164 106.948L177.907 107.432L176.482 106.596V108.212H175.959V106.596L174.534 107.432L174.258 106.948L175.684 106.15L174.258 105.351L174.534 104.867L175.959 105.712V104.087H176.482V105.712L177.907 104.867L178.164 105.351L176.758 106.15Z" fill="white"/>
</g>
<g opacity="0.2">
<path d="M182.402 106.15L183.818 106.948L183.562 107.432L182.136 106.596V108.212H181.604V106.596L180.179 107.432L179.903 106.948L181.329 106.15L179.903 105.351L180.179 104.867L181.604 105.712V104.087H182.136V105.712L183.562 104.867L183.818 105.351L182.402 106.15Z" fill="white"/>
</g>
<g opacity="0.2">
<path d="M188.076 106.15L189.492 106.948L189.226 107.432L187.8 106.596V108.212H187.278V106.596L185.852 107.432L185.586 106.948L187.011 106.15L185.586 105.351L185.852 104.867L187.278 105.712V104.087H187.8V105.712L189.226 104.867L189.492 105.351L188.076 106.15Z" fill="white"/>
</g>
<g opacity="0.2">
<path d="M193.749 106.15L195.156 106.948L194.899 107.432L193.474 106.596V108.212H192.913V106.596L191.487 107.432L191.212 106.948L192.637 106.15L191.212 105.351L191.487 104.867L192.913 105.712V104.087H193.436V105.712L194.861 104.867L195.118 105.351L193.749 106.15Z" fill="white"/>
</g>
<g opacity="0.4">
<path d="M231.248 134.944L234.394 130.573C233.188 128.221 232.568 125.613 232.588 122.97C232.588 115.13 237.777 108.782 244.182 108.782C245.906 108.79 247.597 109.252 249.086 110.122L251.243 107.128C249.056 106.067 246.66 105.506 244.23 105.484C231.514 105.484 221.204 123.056 221.204 123.056C223.945 127.494 227.33 131.5 231.248 134.944Z" fill="black"/>
<path d="M255.472 109.78L265.64 95.6487C265.818 95.3977 265.909 95.096 265.902 94.7886C265.894 94.4812 265.787 94.1846 265.596 93.943C265.406 93.7014 265.143 93.5279 264.846 93.4482C264.549 93.3685 264.234 93.3871 263.948 93.501C264.006 93.7034 264.017 93.9163 263.981 94.1236C263.945 94.331 263.862 94.5274 263.739 94.6984L223.133 151.099C222.976 151.32 222.758 151.488 222.505 151.584C222.591 151.903 222.782 152.184 223.047 152.382C223.199 152.492 223.371 152.57 223.554 152.613C223.736 152.655 223.925 152.661 224.11 152.631C224.294 152.6 224.471 152.532 224.63 152.433C224.788 152.333 224.925 152.203 225.033 152.05L235.249 137.852C237.933 139.582 241.038 140.548 244.23 140.646C256.945 140.646 267.256 123.065 267.256 123.065C267.256 123.065 262.475 114.987 255.472 109.78ZM244.23 137.234C241.776 137.213 239.413 136.305 237.577 134.678L239.259 132.35C240.653 133.496 242.397 134.13 244.201 134.146C249.209 134.146 253.276 129.176 253.276 123.037C253.3 120.482 252.548 117.98 251.119 115.862L252.792 113.534C254.779 116.301 255.832 119.63 255.795 123.037C255.776 130.877 250.587 137.234 244.23 137.234Z" fill="black"/>
<path d="M244.23 111.927C239.212 111.927 235.154 116.898 235.154 123.037C235.149 124.803 235.502 126.551 236.19 128.178L247.375 112.621C246.389 112.166 245.316 111.929 244.23 111.927Z" fill="black"/>
</g>
<path d="M294.276 366V356.545H297.582C298.24 356.545 298.783 356.659 299.211 356.887C299.639 357.112 299.958 357.415 300.167 357.797C300.376 358.175 300.481 358.595 300.481 359.057C300.481 359.463 300.408 359.799 300.264 360.063C300.122 360.328 299.934 360.537 299.701 360.691C299.47 360.845 299.219 360.959 298.948 361.033V361.125C299.237 361.143 299.528 361.245 299.821 361.43C300.113 361.614 300.358 361.879 300.555 362.224C300.752 362.568 300.85 362.99 300.85 363.489C300.85 363.963 300.742 364.389 300.527 364.767C300.312 365.146 299.971 365.446 299.507 365.668C299.042 365.889 298.437 366 297.692 366H294.276ZM295.421 364.984H297.692C298.44 364.984 298.971 364.84 299.285 364.55C299.602 364.258 299.761 363.904 299.761 363.489C299.761 363.169 299.679 362.873 299.516 362.602C299.353 362.328 299.12 362.11 298.819 361.947C298.517 361.781 298.16 361.697 297.748 361.697H295.421V364.984ZM295.421 360.7H297.545C297.889 360.7 298.2 360.633 298.477 360.497C298.757 360.362 298.979 360.171 299.142 359.925C299.308 359.679 299.391 359.389 299.391 359.057C299.391 358.641 299.247 358.289 298.957 358C298.668 357.707 298.209 357.561 297.582 357.561H295.421V360.7ZM303.285 368.659C303.101 368.659 302.936 368.644 302.791 368.613C302.647 368.585 302.547 368.558 302.491 368.53L302.768 367.57C303.033 367.637 303.267 367.662 303.47 367.643C303.673 367.625 303.853 367.534 304.01 367.371C304.17 367.211 304.316 366.951 304.449 366.591L304.652 366.037L302.03 358.909H303.211L305.169 364.56H305.243L307.2 358.909H308.382L305.372 367.034C305.237 367.4 305.069 367.703 304.869 367.944C304.669 368.187 304.436 368.367 304.172 368.484C303.91 368.601 303.615 368.659 303.285 368.659ZM313.624 366V356.545H319.293V357.561H314.769V360.756H318.868V361.771H314.769V366H313.624ZM321.03 366V358.909H322.082V359.98H322.156C322.286 359.629 322.519 359.345 322.858 359.126C323.197 358.908 323.578 358.798 324.003 358.798C324.083 358.798 324.183 358.8 324.303 358.803C324.423 358.806 324.514 358.811 324.575 358.817V359.925C324.538 359.915 324.454 359.902 324.321 359.883C324.192 359.862 324.055 359.851 323.911 359.851C323.566 359.851 323.258 359.923 322.987 360.068C322.72 360.209 322.507 360.406 322.35 360.659C322.196 360.908 322.119 361.193 322.119 361.513V366H321.03ZM328.624 366.148C327.941 366.148 327.351 365.997 326.856 365.695C326.363 365.391 325.983 364.966 325.716 364.421C325.451 363.873 325.319 363.236 325.319 362.51C325.319 361.784 325.451 361.143 325.716 360.589C325.983 360.032 326.356 359.598 326.833 359.288C327.313 358.974 327.873 358.817 328.513 358.817C328.883 358.817 329.247 358.878 329.607 359.001C329.967 359.125 330.295 359.325 330.591 359.602C330.886 359.875 331.121 360.239 331.297 360.691C331.472 361.143 331.56 361.701 331.56 362.362V362.824H326.094V361.882H330.452C330.452 361.482 330.372 361.125 330.212 360.811C330.055 360.497 329.83 360.249 329.538 360.068C329.249 359.886 328.907 359.795 328.513 359.795C328.079 359.795 327.704 359.903 327.387 360.119C327.073 360.331 326.831 360.608 326.662 360.95C326.493 361.291 326.408 361.657 326.408 362.048V362.676C326.408 363.212 326.5 363.666 326.685 364.038C326.873 364.407 327.133 364.689 327.465 364.883C327.798 365.074 328.184 365.169 328.624 365.169C328.91 365.169 329.169 365.129 329.4 365.049C329.633 364.966 329.835 364.843 330.004 364.68C330.174 364.513 330.304 364.307 330.397 364.061L331.449 364.357C331.338 364.714 331.152 365.027 330.891 365.298C330.629 365.566 330.306 365.775 329.921 365.926C329.537 366.074 329.104 366.148 328.624 366.148ZM336.19 366.148C335.507 366.148 334.918 365.997 334.422 365.695C333.93 365.391 333.55 364.966 333.282 364.421C333.017 363.873 332.885 363.236 332.885 362.51C332.885 361.784 333.017 361.143 333.282 360.589C333.55 360.032 333.922 359.598 334.399 359.288C334.879 358.974 335.439 358.817 336.08 358.817C336.449 358.817 336.814 358.878 337.174 359.001C337.534 359.125 337.862 359.325 338.157 359.602C338.452 359.875 338.688 360.239 338.863 360.691C339.039 361.143 339.126 361.701 339.126 362.362V362.824H333.661V361.882H338.019C338.019 361.482 337.938 361.125 337.778 360.811C337.621 360.497 337.397 360.249 337.104 360.068C336.815 359.886 336.474 359.795 336.08 359.795C335.646 359.795 335.27 359.903 334.953 360.119C334.639 360.331 334.398 360.608 334.228 360.95C334.059 361.291 333.974 361.657 333.974 362.048V362.676C333.974 363.212 334.067 363.666 334.251 364.038C334.439 364.407 334.699 364.689 335.032 364.883C335.364 365.074 335.75 365.169 336.19 365.169C336.477 365.169 336.735 365.129 336.966 365.049C337.2 364.966 337.401 364.843 337.571 364.68C337.74 364.513 337.871 364.307 337.963 364.061L339.016 364.357C338.905 364.714 338.719 365.027 338.457 365.298C338.195 365.566 337.872 365.775 337.488 365.926C337.103 366.074 336.67 366.148 336.19 366.148ZM340.784 368.659V358.909H341.836V360.036H341.966C342.046 359.912 342.156 359.755 342.298 359.565C342.443 359.371 342.649 359.198 342.917 359.048C343.187 358.894 343.554 358.817 344.015 358.817C344.612 358.817 345.139 358.966 345.594 359.265C346.05 359.563 346.405 359.986 346.661 360.534C346.916 361.082 347.044 361.728 347.044 362.473C347.044 363.224 346.916 363.875 346.661 364.426C346.405 364.974 346.051 365.398 345.599 365.7C345.146 365.998 344.625 366.148 344.034 366.148C343.578 366.148 343.214 366.072 342.94 365.922C342.666 365.768 342.455 365.594 342.307 365.4C342.159 365.203 342.046 365.04 341.966 364.911H341.873V368.659H340.784ZM341.855 362.455C341.855 362.99 341.933 363.462 342.09 363.872C342.247 364.278 342.476 364.597 342.778 364.827C343.08 365.055 343.449 365.169 343.886 365.169C344.342 365.169 344.722 365.049 345.026 364.809C345.334 364.566 345.565 364.24 345.719 363.83C345.876 363.418 345.954 362.959 345.954 362.455C345.954 361.956 345.877 361.507 345.723 361.107C345.573 360.703 345.343 360.385 345.036 360.151C344.731 359.914 344.348 359.795 343.886 359.795C343.443 359.795 343.07 359.908 342.769 360.132C342.467 360.354 342.24 360.665 342.086 361.065C341.932 361.462 341.855 361.925 341.855 362.455ZM348.706 366V358.909H349.795V366H348.706ZM349.26 357.727C349.047 357.727 348.864 357.655 348.71 357.51C348.559 357.366 348.484 357.192 348.484 356.989C348.484 356.786 348.559 356.612 348.71 356.467C348.864 356.322 349.047 356.25 349.26 356.25C349.472 356.25 349.654 356.322 349.804 356.467C349.958 356.612 350.035 356.786 350.035 356.989C350.035 357.192 349.958 357.366 349.804 357.51C349.654 357.655 349.472 357.727 349.26 357.727ZM352.806 363.415L352.788 362.067H353.009L356.112 358.909H357.46L354.154 362.251H354.062L352.806 363.415ZM351.791 366V356.545H352.88V366H351.791ZM356.296 366L353.526 362.491L354.302 361.734L357.681 366H356.296ZM370.274 359.5H369.129C369.061 359.171 368.943 358.881 368.773 358.632C368.607 358.383 368.404 358.174 368.164 358.004C367.927 357.832 367.664 357.703 367.375 357.616C367.085 357.53 366.784 357.487 366.47 357.487C365.897 357.487 365.379 357.632 364.914 357.921C364.452 358.21 364.085 358.637 363.811 359.2C363.54 359.763 363.405 360.454 363.405 361.273C363.405 362.091 363.54 362.782 363.811 363.346C364.085 363.909 364.452 364.335 364.914 364.624C365.379 364.914 365.897 365.058 366.47 365.058C366.784 365.058 367.085 365.015 367.375 364.929C367.664 364.843 367.927 364.715 368.164 364.546C368.404 364.373 368.607 364.163 368.773 363.913C368.943 363.661 369.061 363.372 369.129 363.045H370.274C370.188 363.529 370.031 363.961 369.803 364.343C369.575 364.724 369.292 365.049 368.954 365.317C368.615 365.581 368.235 365.783 367.813 365.922C367.395 366.06 366.947 366.129 366.47 366.129C365.664 366.129 364.946 365.932 364.319 365.538C363.691 365.144 363.197 364.584 362.837 363.858C362.477 363.132 362.297 362.27 362.297 361.273C362.297 360.276 362.477 359.414 362.837 358.688C363.197 357.961 363.691 357.401 364.319 357.007C364.946 356.613 365.664 356.416 366.47 356.416C366.947 356.416 367.395 356.485 367.813 356.624C368.235 356.762 368.615 356.966 368.954 357.233C369.292 357.498 369.575 357.821 369.803 358.203C370.031 358.581 370.188 359.014 370.274 359.5ZM374.857 366.148C374.217 366.148 373.655 365.995 373.172 365.691C372.692 365.386 372.316 364.96 372.045 364.412C371.778 363.864 371.644 363.224 371.644 362.491C371.644 361.753 371.778 361.108 372.045 360.557C372.316 360.006 372.692 359.578 373.172 359.274C373.655 358.969 374.217 358.817 374.857 358.817C375.497 358.817 376.057 358.969 376.537 359.274C377.02 359.578 377.396 360.006 377.664 360.557C377.934 361.108 378.07 361.753 378.07 362.491C378.07 363.224 377.934 363.864 377.664 364.412C377.396 364.96 377.02 365.386 376.537 365.691C376.057 365.995 375.497 366.148 374.857 366.148ZM374.857 365.169C375.343 365.169 375.743 365.044 376.057 364.795C376.371 364.546 376.603 364.218 376.754 363.812C376.905 363.406 376.98 362.965 376.98 362.491C376.98 362.018 376.905 361.576 376.754 361.167C376.603 360.757 376.371 360.426 376.057 360.174C375.743 359.922 375.343 359.795 374.857 359.795C374.371 359.795 373.97 359.922 373.657 360.174C373.343 360.426 373.11 360.757 372.959 361.167C372.809 361.576 372.733 362.018 372.733 362.491C372.733 362.965 372.809 363.406 372.959 363.812C373.11 364.218 373.343 364.546 373.657 364.795C373.97 365.044 374.371 365.169 374.857 365.169ZM379.733 366V358.909H380.786V360.017H380.878C381.026 359.638 381.264 359.345 381.593 359.135C381.923 358.923 382.318 358.817 382.78 358.817C383.248 358.817 383.637 358.923 383.948 359.135C384.262 359.345 384.506 359.638 384.682 360.017H384.756C384.937 359.651 385.21 359.36 385.573 359.145C385.936 358.926 386.371 358.817 386.879 358.817C387.513 358.817 388.032 359.015 388.435 359.412C388.838 359.806 389.04 360.42 389.04 361.254V366H387.95V361.254C387.95 360.731 387.807 360.357 387.521 360.132C387.235 359.908 386.898 359.795 386.51 359.795C386.011 359.795 385.625 359.946 385.351 360.248C385.077 360.546 384.94 360.925 384.94 361.384V366H383.832V361.143C383.832 360.74 383.702 360.416 383.44 360.169C383.178 359.92 382.841 359.795 382.429 359.795C382.146 359.795 381.881 359.871 381.635 360.022C381.392 360.172 381.195 360.382 381.044 360.65C380.896 360.914 380.822 361.22 380.822 361.568V366H379.733ZM391.032 368.659V358.909H392.084V360.036H392.214C392.294 359.912 392.404 359.755 392.546 359.565C392.691 359.371 392.897 359.198 393.165 359.048C393.435 358.894 393.802 358.817 394.263 358.817C394.86 358.817 395.387 358.966 395.842 359.265C396.298 359.563 396.653 359.986 396.909 360.534C397.164 361.082 397.292 361.728 397.292 362.473C397.292 363.224 397.164 363.875 396.909 364.426C396.653 364.974 396.299 365.398 395.847 365.7C395.394 365.998 394.873 366.148 394.282 366.148C393.826 366.148 393.462 366.072 393.188 365.922C392.914 365.768 392.703 365.594 392.555 365.4C392.408 365.203 392.294 365.04 392.214 364.911H392.121V368.659H391.032ZM392.103 362.455C392.103 362.99 392.181 363.462 392.338 363.872C392.495 364.278 392.725 364.597 393.026 364.827C393.328 365.055 393.697 365.169 394.134 365.169C394.59 365.169 394.97 365.049 395.274 364.809C395.582 364.566 395.813 364.24 395.967 363.83C396.124 363.418 396.202 362.959 396.202 362.455C396.202 361.956 396.125 361.507 395.971 361.107C395.821 360.703 395.591 360.385 395.284 360.151C394.979 359.914 394.596 359.795 394.134 359.795C393.691 359.795 393.319 359.908 393.017 360.132C392.715 360.354 392.488 360.665 392.334 361.065C392.18 361.462 392.103 361.925 392.103 362.455ZM401.04 366.166C400.591 366.166 400.183 366.082 399.817 365.912C399.451 365.74 399.16 365.492 398.944 365.169C398.729 364.843 398.621 364.449 398.621 363.987C398.621 363.581 398.701 363.252 398.861 362.999C399.021 362.744 399.235 362.544 399.503 362.399C399.771 362.254 400.066 362.147 400.389 362.076C400.716 362.002 401.043 361.944 401.373 361.901C401.804 361.845 402.153 361.804 402.421 361.776C402.692 361.745 402.888 361.694 403.012 361.624C403.138 361.553 403.201 361.43 403.201 361.254V361.217C403.201 360.762 403.076 360.408 402.827 360.156C402.581 359.903 402.207 359.777 401.705 359.777C401.185 359.777 400.777 359.891 400.482 360.119C400.186 360.346 399.979 360.589 399.859 360.848L398.824 360.479C399.009 360.048 399.255 359.712 399.563 359.472C399.874 359.229 400.212 359.06 400.579 358.964C400.948 358.866 401.311 358.817 401.668 358.817C401.896 358.817 402.158 358.844 402.453 358.9C402.752 358.952 403.039 359.061 403.316 359.228C403.596 359.394 403.829 359.645 404.013 359.98C404.198 360.316 404.29 360.765 404.29 361.328V366H403.201V365.04H403.145C403.072 365.194 402.948 365.358 402.776 365.534C402.604 365.709 402.375 365.858 402.088 365.982C401.802 366.105 401.453 366.166 401.04 366.166ZM401.207 365.188C401.637 365.188 402.001 365.103 402.296 364.934C402.595 364.764 402.819 364.546 402.97 364.278C403.124 364.01 403.201 363.729 403.201 363.433V362.436C403.155 362.491 403.053 362.542 402.896 362.588C402.742 362.632 402.564 362.67 402.361 362.704C402.161 362.735 401.965 362.762 401.774 362.787C401.587 362.808 401.434 362.827 401.317 362.842C401.034 362.879 400.77 362.939 400.523 363.022C400.28 363.102 400.083 363.224 399.932 363.387C399.785 363.547 399.711 363.766 399.711 364.043C399.711 364.421 399.851 364.707 400.131 364.901C400.414 365.092 400.773 365.188 401.207 365.188ZM407.368 361.734V366H406.279V358.909H407.331V360.017H407.424C407.59 359.657 407.842 359.368 408.181 359.149C408.519 358.928 408.956 358.817 409.492 358.817C409.972 358.817 410.392 358.915 410.752 359.112C411.112 359.306 411.392 359.602 411.592 359.999C411.793 360.393 411.893 360.891 411.893 361.494V366H410.803V361.568C410.803 361.011 410.658 360.577 410.369 360.266C410.08 359.952 409.683 359.795 409.178 359.795C408.83 359.795 408.519 359.871 408.246 360.022C407.975 360.172 407.761 360.393 407.604 360.682C407.447 360.971 407.368 361.322 407.368 361.734ZM414.331 368.659C414.147 368.659 413.982 368.644 413.837 368.613C413.693 368.585 413.593 368.558 413.537 368.53L413.814 367.57C414.079 367.637 414.313 367.662 414.516 367.643C414.719 367.625 414.899 367.534 415.056 367.371C415.216 367.211 415.362 366.951 415.495 366.591L415.698 366.037L413.076 358.909H414.257L416.215 364.56H416.289L418.246 358.909H419.428L416.418 367.034C416.282 367.4 416.115 367.703 415.915 367.944C415.715 368.187 415.482 368.367 415.218 368.484C414.956 368.601 414.66 368.659 414.331 368.659Z" fill="#CBCBCB"/>
<path d="M75.293 112.916C75.293 112.916 64.0128 132.682 63.1766 137.415C62.3403 142.147 72.7842 172.434 72.7842 172.434C72.7842 172.434 70.4844 180.407 72.9933 181.747C75.5021 183.087 79.883 185.795 80.5102 183.505C81.1374 181.215 80.5102 173.631 80.5102 173.631L78.6096 172.016C78.6096 172.016 71.9574 140.38 71.9574 139.277C71.9574 138.175 84.0834 119.521 84.0834 119.521L75.293 112.916Z" fill="#E4897B"/>
<path d="M85.3948 123.322L84.9577 123.93L77.6973 133.994L76.747 135.258L65.4668 125.65C65.4668 125.65 71.4823 110.654 78.4956 106.767L83.3992 118.542L84.5776 121.345L85.3948 123.322Z" fill="#407BFF"/>
<path opacity="0.2" d="M84.9577 123.93L77.6973 133.994C76.747 124.538 81.5746 119.929 83.3992 118.542C83.6171 118.369 83.8456 118.21 84.0834 118.067L84.568 121.345L84.9577 123.93Z" fill="black"/>
<path d="M117.601 338.652L125.308 339.46L125.697 334.994L126.752 322.839L119.045 322.022L117.876 335.45L117.601 338.652Z" fill="#E4897B"/>
<path d="M79.1323 337.674H86.6017L86.6682 335.982L86.6777 335.773L87.0578 324.939L87.0674 324.721L87.2194 320.568H79.7405L79.1323 337.674Z" fill="#E4897B"/>
<path opacity="0.2" d="M119.045 322.022L117.876 335.45L125.697 334.994L126.752 322.839L119.045 322.022Z" fill="black"/>
<path opacity="0.2" d="M79.1798 336.723H79.1893L86.6682 335.773H86.6777L87.0674 325.32H87.0578L79.5694 325.918L79.1893 336.391L79.1798 336.723Z" fill="black"/>
<path d="M87.6375 337.217H78.5621C78.4144 337.221 78.2721 337.274 78.1571 337.367C78.0421 337.459 77.9607 337.587 77.9254 337.731L76.4524 344.383C76.3932 344.67 76.4499 344.969 76.6101 345.215C76.7703 345.46 77.021 345.633 77.3077 345.694C77.3862 345.708 77.4667 345.708 77.5452 345.694C80.4817 345.647 82.6199 345.466 86.3071 345.466C88.5783 345.466 95.4301 345.704 98.5661 345.704C101.702 345.704 102.111 342.606 100.828 342.321C95.069 341.066 90.7355 339.327 88.8919 337.674C88.5479 337.366 88.0987 337.203 87.6375 337.217Z" fill="#263238"/>
<path d="M126.125 336.98H117.05C116.902 336.984 116.76 337.036 116.645 337.129C116.53 337.222 116.448 337.35 116.413 337.493L114.94 344.145C114.881 344.432 114.937 344.731 115.098 344.977C115.258 345.223 115.509 345.395 115.795 345.457C115.874 345.471 115.954 345.471 116.033 345.457C118.969 345.409 121.107 345.228 124.795 345.228C127.066 345.228 133.918 345.466 137.054 345.466C140.19 345.466 140.598 342.368 139.315 342.083C133.557 340.829 129.223 339.089 127.379 337.436C127.035 337.128 126.586 336.965 126.125 336.98Z" fill="#263238"/>
<path d="M127.465 333.872H116.508C116.508 333.872 117.401 239.545 105.551 207.69C104.715 218.22 103.774 229.148 102.852 238.252C102.272 243.887 101.702 248.706 101.16 252.412C97.7108 276.169 89.006 334.823 89.006 334.823H78.1819C78.1819 334.823 79.4649 278.621 80.7478 255.272C82.1637 229.927 82.7719 174.22 82.829 169.469H122.476C126.249 189.425 135.894 269.251 127.465 333.872Z" fill="#263238"/>
<path opacity="0.2" d="M105.551 207.652C104.715 218.182 103.774 229.129 102.852 238.233C101.503 225.09 99.849 215.72 99.849 215.72C99.849 215.72 98.3 214.447 94.0426 207.652C89.7852 200.858 94.0806 188.161 94.0806 188.161C93.9096 199.955 105.551 207.652 105.551 207.652Z" fill="black"/>
<path d="M128.691 330.784L128.159 333.872H115.206V331.021L128.691 330.784Z" fill="#407BFF"/>
<path d="M90.2414 331.972L89.006 334.823H78.1439L77.4312 331.972H90.2414Z" fill="#407BFF"/>
<path d="M104.382 79.2084C104.382 79.2084 114.892 76.4525 116.679 73.8486C118.466 71.2448 110.131 70.8837 104.515 73.2214C98.8987 75.5592 104.382 79.2084 104.382 79.2084Z" fill="#263238"/>
<path opacity="0.2" d="M104.382 79.2084C104.382 79.2084 114.892 76.4525 116.679 73.8486C118.466 71.2448 110.131 70.8837 104.515 73.2214C98.8987 75.5592 104.382 79.2084 104.382 79.2084Z" fill="white"/>
<path d="M108.079 91.4199C107.984 91.781 107.879 92.1326 107.756 92.4747C107.051 94.4523 105.762 96.169 104.059 97.3973C103.63 97.7137 103.176 97.9934 102.7 98.2336C101.464 98.8939 100.097 99.269 98.6973 99.3315C97.2979 99.394 95.9022 99.1422 94.6128 98.5947C93.4513 98.0946 92.4013 97.3676 91.5243 96.4565C87.7801 92.6553 87.8751 88.3124 87.457 80.9189C87.3276 79.194 87.6425 77.4648 88.3715 75.8962C89.1006 74.3275 90.2195 72.972 91.6216 71.9588C93.0236 70.9457 94.6618 70.3088 96.38 70.1089C98.0982 69.9091 99.8389 70.1529 101.436 70.8172C108.687 73.7726 109.675 84.7677 108.079 91.4199Z" fill="#E4897B"/>
<path opacity="0.2" d="M104.059 97.3973C103.63 97.7137 103.176 97.9934 102.7 98.2336C101.464 98.8939 100.097 99.269 98.6974 99.3315C97.2979 99.394 95.9022 99.1423 94.6128 98.5947C94.941 97.7041 95.3852 96.8605 95.9338 96.0859C98.7119 95.7325 101.533 96.1878 104.059 97.3973Z" fill="black"/>
<path d="M89.1866 106.986C92.8262 110.293 101.74 109.067 101.74 109.067C101.74 109.067 107.309 107.547 106.14 105.808C102.862 105.266 101.274 103.736 100.619 101.778C100.26 100.565 100.147 99.2918 100.286 98.034C100.341 97.3327 100.433 96.6348 100.562 95.9433L89.5382 87.7802C90.9826 93.1304 92.7502 103.08 89.1866 106.986Z" fill="#E4897B"/>
<path d="M99.3359 67.6336C99.3359 67.6336 101.236 66.4362 104.62 69.5342C107.471 72.1855 104.62 74.2857 106.302 77.7069C107.984 81.128 105.712 84.454 105.712 84.454C105.712 84.454 104.087 87.9512 101.265 87.7326C101.265 87.7326 98.9652 90.517 99.3644 93.4345C99.7635 96.3519 95.5631 98.5946 89.9563 98.5186C84.3495 98.4426 86.5732 94.9265 86.5732 94.9265C84.9448 93.0454 83.6293 90.9149 82.6769 88.6164C81.5257 85.8316 80.9627 82.8388 81.0234 79.826C80.9731 78.2556 81.2353 76.6908 81.7949 75.2225C82.3544 73.7543 83.2002 72.4119 84.283 71.2732C88.0462 67.0064 97.0171 64.8777 99.3359 67.6336Z" fill="#263238"/>
<path d="M99.8585 86.1741C99.998 86.8696 100.291 87.5251 100.717 88.0925C101.143 88.6598 101.691 89.1245 102.32 89.4526C103.821 90.0893 104.81 87.9701 104.591 85.7464C104.382 83.7793 103.365 80.9949 101.74 81.375C100.115 81.7551 99.3358 84.1784 99.8585 86.1741Z" fill="#E4897B"/>
<path d="M81.223 84.4921C81.223 84.4921 92.4651 85.9651 108.601 77.0607C108.601 77.0607 105.076 65.1058 100.248 64.7066C95.4206 64.3075 81.489 69.7813 80.6148 72.043C79.5979 74.6944 81.223 84.4921 81.223 84.4921Z" fill="#407BFF"/>
<path d="M81.8882 82.3349C81.8882 82.3349 81.6601 78.6667 82.4583 78.201C83.2566 77.7353 87.0388 76.9561 87.6755 77.5263C88.3123 78.0965 89.1105 81.5081 89.1105 81.5081C89.1105 81.5081 84.8911 82.9335 81.8882 82.3349Z" fill="#263238"/>
<path d="M104.382 79.2084C104.382 79.2084 107.965 76.9656 107.86 74.856L116.679 73.8486C116.679 73.8486 115.786 76.6045 104.382 79.2084Z" fill="#263238"/>
<path opacity="0.2" d="M104.382 79.2084C104.382 79.2084 107.965 76.9656 107.86 74.856L116.679 73.8486C116.679 73.8486 115.786 76.6045 104.382 79.2084Z" fill="white"/>
<path d="M81.8407 172.111C81.8407 172.111 83.3707 154.872 81.0994 128.653C80.5102 121.906 79.674 114.569 78.4956 106.796C78.4956 106.796 100.058 102.044 115.092 106.796C115.092 106.796 116.042 111.756 117.23 119.825C117.563 122.134 117.924 124.69 118.276 127.427C118.494 129.138 118.751 130.972 119.017 132.91C120.566 143.915 122.732 158.179 122.98 171.426L81.8407 172.111Z" fill="#407BFF"/>
<path opacity="0.7" d="M81.8406 172.111C81.8406 172.111 83.3706 154.872 81.0994 128.653C83.1901 111.737 89.1865 106.986 89.1865 106.986L100.989 106.767C111.709 122.647 114.142 126.135 118.276 127.427C119.748 138.831 122.694 155.851 122.98 171.426L81.8406 172.111Z" fill="white"/>
<path opacity="0.2" d="M119.026 132.92C111.519 125.127 114.902 118.067 114.902 118.067L117.23 119.796C117.563 122.105 117.924 124.662 118.276 127.399C118.504 129.147 118.789 130.981 119.026 132.92Z" fill="black"/>
<path d="M118.513 123.683C118.513 123.683 132.198 132.777 137.462 134.355C142.727 135.932 165.183 121.279 165.183 121.279L173.954 122.409C173.954 122.409 175.855 116.299 173.954 114.807C172.054 113.315 164.632 115.7 163.501 116.527C162.37 117.354 141.073 124.633 139.943 125.08C138.812 125.526 122.837 113.866 122.837 113.866L118.513 123.683Z" fill="#E4897B"/>
<path d="M115.092 106.767C115.092 106.767 108.696 114.712 115.092 125.65L128.292 133.043L135.429 119.53C135.429 119.53 125.621 111.186 115.092 106.767Z" fill="#407BFF"/>
</svg>
