<?xml version="1.0" encoding="UTF-8"?>
<svg viewBox="0 0 240 122" width="240" height="122" preserveAspectRatio="xMinYMin meet" version="1.1" xmlns="http://www.w3.org/2000/svg"><g transform="matrix(1.3647 0 0 1.3647 17.924 7.6294e-6)" fill="#fff"><path class="st1" d="m141.1 51.1c.4 0 .7-.3.7-.7s-.3-.7-.7-.7c-.3 0-.7.3-.7.7s.4.7.7.7zm-43.7.5h-.7c-.2 0-.3.1-.2.3l2.7 9c0 .2.2.3.4.3h.8c.2 0 .3-.1.4-.3l2.6-9c0-.2-.1-.3-.2-.3h-.6c-.2 0-.3.1-.3.3l-1.9 6.9c-.1.4-.2 1.1-.3 1.6-.1-.5-.2-1.2-.3-1.6l-1.9-6.9c-.2-.2-.3-.3-.5-.3zm41.2-.5c.4 0 .7-.3.7-.7s-.3-.7-.7-.7c-.3 0-.7.3-.7.7s.4.7.7.7zm-2.1 1.2v-.5c0-.2-.1-.3-.3-.3h-5.5c-.2 0-.3.1-.3.3v.5c0 .2.1.3.3.3h2.2v8.2c0 .2.1.3.3.3h.6c.2 0 .3-.1.3-.3v-8.2h2.2c.1 0 .2-.1.2-.3zm-27-.7h-4.3c-.2 0-.3.1-.3.3v9c0 .2.1.3.3.3h4.3c.2 0 .3-.1.3-.3v-.5c0-.2-.1-.3-.3-.3h-3.5v-3.4h3.2c.2 0 .3-.1.3-.3v-.4c0-.2-.1-.3-.3-.3h-3.2v-2.9h3.5c.2 0 .3-.1.3-.3v-.5c0-.3-.1-.4-.3-.4zm-61.9 6.9c0-1.5-.7-2.1-1.8-2.6l-.8-.4c-.8-.3-1.5-.7-1.5-1.5 0-.9.5-1.4 1.7-1.4.6 0 1 .1 1.5.3.1 0 .3-.1.3-.2l.1-.5c0-.2 0-.3-.2-.4-.4-.1-1.2-.3-1.7-.3-1.9 0-2.9 1.1-2.9 2.5 0 1.6 1.1 2.1 2.1 2.6l.7.3c.8.3 1.2.7 1.2 1.6 0 1-.6 1.6-1.7 1.6-.7 0-1.4-.2-1.9-.4-.2-.1-.3 0-.4.2l-.1.6c0 .2 0 .3.2.4.5.2 1.4.4 2.2.4 2.1-.1 3-1.4 3-2.8zm70.3 2.3c.1.2 0 .3-.2.3h-.9c-.1 0-.2 0-.3-.2-.4-1.2-.7-2.3-1.1-3-.3-.6-.8-1.2-1.8-1.2h-.8v4.1c0 .2-.1.3-.3.3h-.5c-.2 0-.3-.1-.3-.3v-9c0-.2.1-.3.3-.3h2.4c2.3 0 2.8 1.4 2.8 2.3 0 1.4-1 2.3-2.3 2.4.9.1 1.4.9 1.7 1.6.3.3.7 1.4 1.3 3zm-3.6-5.1c1.1 0 1.8-.6 1.8-1.7 0-.8-.6-1.5-1.7-1.5h-1.5v3.1h1.4zm-32.6 2.6v-6.4c0-.2-.1-.3-.3-.3h-.5c-.2 0-.3.1-.3.3v6.3c0 1.7-.8 2-1.9 2-1.4 0-1.8-.8-1.8-2.2v-6.2c0-.2-.1-.3-.3-.3h-.5c-.2 0-.3.1-.3.3v6.4c0 1.8.8 2.9 2.9 2.9 2 .1 3-.9 3-2.8zm8.4-6.7h-.5c-.2 0-.3.1-.3.3v6.4c0 .7.1 1.5.2 2.1-.2-.5-.3-1.1-.6-1.8l-3-6.8c-.1-.1-.2-.2-.3-.2h-1.1c-.2 0-.3.1-.3.3v9c0 .1.1.3.3.3h.5c.2 0 .3-.1.3-.3v-6.5c0-.5-.1-1.5-.2-2.1.2.6.4 1.3.6 1.9l3 6.8c.1.1.2.2.3.2h1c.2 0 .3-.1.3-.3v-9c.1-.2-.1-.3-.2-.3zm59.2 0h-5.5c-.2 0-.3.1-.3.3v.5c0 .2.1.3.3.3h2.2v8.2c0 .2.1.3.3.3h.6c.2 0 .3-.1.3-.3v-8.2h2.2c.2 0 .3-.1.3-.3v-.5c-.1-.2-.2-.3-.4-.3zm-26.3 4.3-.8-.3c-.8-.3-1.5-.7-1.5-1.5 0-.9.5-1.4 1.7-1.4.6 0 1 .1 1.5.3.1 0 .3-.1.3-.2l.1-.5c0-.2 0-.3-.2-.4-.4-.1-1.2-.3-1.7-.3-1.9 0-2.9 1.1-2.9 2.5 0 1.6 1.1 2.1 2.1 2.6l.7.3c.8.3 1.2.7 1.2 1.6 0 1-.6 1.6-1.7 1.6-.7 0-1.4-.2-1.9-.4-.2-.1-.3 0-.4.2l-.1.6c0 .2 0 .3.2.4.5.2 1.4.4 2.2.4 2.1 0 3-1.3 3-2.7 0-1.8-.7-2.4-1.8-2.8zm20.4 4.9c.1.2 0 .3-.2.3h-.7c-.2 0-.3-.1-.4-.3l-.7-2.4h-3.2l-.6 2.4c0 .2-.2.3-.3.3h-.7c-.2 0-.3-.1-.2-.3l2.6-9c.1-.2.2-.3.4-.3h.9c.2 0 .3.1.4.3zm-2.2-3.3-1.1-4.1c-.1-.4-.2-.8-.2-1.2 0 .4-.1.8-.2 1.2l-1.1 4.1zm-12.3-5.9h-2.6c-.2 0-.3.1-.3.3v.3c0 .2.1.3.3.3h.7v7.7h-.7c-.2 0-.3.1-.3.3v.3c0 .2.1.3.3.3h2.6c.2 0 .3-.1.3-.3v-.3c0-.2-.1-.3-.3-.3h-.7v-7.7h.7c.2 0 .3-.1.3-.3v-.3c0-.2-.2-.3-.3-.3zm-102 0h-.5c-.2 0-.3.1-.3.3v3.7h-3.6v-3.7c0-.2-.1-.3-.3-.3h-.5c-.2 0-.3.1-.3.3v9c0 .2.1.3.3.3h.5c.2 0 .3-.1.3-.3v-4.3h3.5v4.3c0 .2.1.3.3.3h.5c.2 0 .3-.1.3-.3v-9c.1-.2-.1-.3-.2-.3zm34.7 9.5h.5c.2 0 .3-.1.3-.3v-9c0-.2-.1-.3-.3-.3h-.5c-.2 0-.3.1-.3.3v3.7h-3.6v-3.7c0-.2-.1-.3-.3-.3h-.5c-.2 0-.3.1-.3.3v9c0 .2.1.3.3.3h.5c.2 0 .3-.1.3-.3v-4.3h3.6v4.3c0 .2.2.3.3.3zm-55.9-9.5h-5.5c-.2 0-.3.1-.3.3v.5c0 .2.1.3.3.3h2.2v8.2c0 .2.1.3.3.3h.6c.2 0 .3-.1.3-.3v-8.2h2.2c.2 0 .3-.1.3-.3v-.5c-.1-.2-.3-.3-.4-.3zm47.1 9.6c.9 0 1.4-.2 1.8-.4.1-.1.2-.2.1-.3l-.3-.5c-.1-.1-.2-.2-.4-.1s-.8.3-1.2.3c-1.4 0-2.4-1.1-2.4-3.8 0-2.6.9-3.7 2.5-3.7.4 0 .8.1 1.1.3.2.1.3 0 .4-.1l.2-.4c.1-.2 0-.3-.1-.4-.5-.3-1.1-.4-1.6-.4-2.2 0-3.7 1.8-3.7 4.8 0 2.9 1.3 4.7 3.6 4.7zm16.8-8.6c.2 0 .3-.1.3-.3v-.5c0-.2-.1-.3-.3-.3h-4.3c-.2 0-.3.1-.3.3v9c0 .2.1.3.3.3h4.3c.2 0 .3-.1.3-.3v-.5c0-.2-.1-.3-.3-.3h-3.5v-3.4h3.2c.2 0 .3-.1.3-.3v-.4c0-.2-.1-.3-.3-.3h-3.2v-2.9h3.5zm25.3-.1c.2 0 .3-.1.3-.3v-.3c0-.2-.1-.3-.3-.3h-2.6c-.2 0-.3.1-.3.3v.3c0 .2.1.3.3.3h.7v7.7h-.7c-.2 0-.3.1-.3.3v.3c0 .2.1.3.3.3h2.6c.2 0 .3-.1.3-.3v-.3c0-.2-.1-.3-.3-.3h-.7v-7.7zm-54.5-.9h-2.6c-.2 0-.3.1-.3.3v.3c0 .2.1.3.3.3h.7v7.7h-.7c-.2 0-.3.1-.3.3v.3c0 .2.1.3.3.3h2.6c.2 0 .3-.1.3-.3v-.3c0-.2-.1-.3-.3-.3h-.7v-7.7h.7c.2 0 .3-.1.3-.3v-.3c0-.2-.1-.3-.3-.3zm-4.9 0h-.5c-.2 0-.3.1-.3.3v6.4c0 .7.1 1.5.2 2.1-.2-.5-.3-1.1-.6-1.8l-3-6.8c-.1-.1-.2-.2-.3-.2h-1.1c-.2 0-.3.1-.3.3v9c0 .1.1.3.3.3h.5c.2 0 .3-.1.3-.3v-6.5c0-.5-.1-1.5-.2-2.1.2.6.4 1.3.6 1.9l3 6.8c.1.1.2.2.3.2h1c.2 0 .3-.1.3-.3v-9c.1-.2 0-.3-.2-.3zm-16.4 8.3c-.1-.1-.2-.2-.4-.1s-.8.3-1.2.3c-1.4 0-2.4-1.1-2.4-3.8 0-2.6.9-3.7 2.5-3.7.4 0 .8.1 1.1.3.2.1.3 0 .4-.1l.2-.4c.1-.2 0-.3-.1-.4-.5-.3-1.1-.4-1.6-.4-2.2 0-3.7 1.8-3.7 4.8 0 3.1 1.3 4.9 3.6 4.9.9 0 1.4-.2 1.8-.4.1-.1.2-.2.1-.3zm-7-8.3h-4.4c-.2 0-.3.1-.3.3v9c0 .2.1.3.3.3h4.3c.2 0 .3-.1.3-.3v-.5c0-.2-.1-.3-.3-.3h-3.4v-3.4h3.2c.2 0 .3-.1.3-.3v-.4c0-.2-.1-.3-.3-.3h-3.2v-2.9h3.5c.2 0 .3-.1.3-.3v-.5c0-.3-.2-.4-.3-.4z"/><path class="st1" d="m51 88c-.1-.1-.2-.2-.4-.1s-.8.3-1.2.3c-1.4 0-2.4-1.1-2.4-3.8 0-2.6.9-3.7 2.5-3.7.4 0 .8.1 1.1.3.2.1.3 0 .4-.1l.2-.4c.1-.2 0-.3-.1-.4-.5-.3-1.1-.4-1.6-.4-2.2 0-3.7 1.8-3.7 4.8 0 3.1 1.3 4.9 3.6 4.9.9 0 1.4-.2 1.8-.4.1-.1.2-.2.1-.3z"/><path class="st1" d="m66.2 79.6h-4.3c-.2 0-.3.1-.3.3v9c0 .2.1.3.3.3h4.3c.2 0 .3-.1.3-.3v-.5c0-.2-.1-.3-.3-.3h-3.5v-3.4h3.2c.2 0 .3-.1.3-.3v-.4c0-.2-.1-.3-.3-.3h-3.2v-2.9h3.5c.2 0 .3-.1.3-.3v-.5c0-.3-.2-.4-.3-.4z"/><path class="st1" d="m58.8 79.6h-.5c-.2 0-.3.1-.3.3v3.7h-3.6v-3.7c0-.2-.1-.3-.3-.3h-.5c-.2 0-.3.1-.3.3v9c0 .2.1.3.3.3h.4c.2 0 .3-.1.3-.3v-4.3h3.6v4.3c0 .2.1.3.3.3h.5c.2 0 .3-.1.3-.3v-9c.1-.2-.1-.3-.2-.3z"/><path class="st1" d="m89.8 79.6h-2.6c-.2 0-.3.1-.3.3v.3c0 .2.1.3.3.3h.7v7.7h-.7c-.2 0-.3.1-.3.3v.3c0 .2.1.3.3.3h2.6c.2 0 .3-.1.3-.3v-.3c0-.2-.1-.3-.3-.3h-.8v-7.7h.7c.2 0 .3-.1.3-.3v-.3c0-.1-.1-.3-.2-.3z"/><path class="st1" d="m97.1 79.6h-5.5c-.2 0-.3.1-.3.3v.5c0 .2.1.3.3.3h2.2v8.2c0 .2.1.3.3.3h.6c.2 0 .3-.1.3-.3v-8.2h2.2c.2 0 .3-.1.3-.3v-.5c-.1-.2-.2-.3-.4-.3z"/><path class="st1" d="m75.7 79.6h-1.1c-.1 0-.3.1-.3.2l-1.6 5.9c-.1.5-.2 1.1-.2 1.6-.1-.5-.1-1.2-.2-1.6l-1.6-6c0-.1-.1-.2-.3-.2h-1.1c-.2 0-.3.1-.3.3l-.7 9c0 .2.1.3.2.3h.7c.1 0 .2-.1.2-.3l.4-6.6v-1.9c.1.5.1 1.3.3 1.9l1.5 5.6c.1.2.1.3.3.3h.8c.2 0 .2-.1.3-.3l1.5-5.6c.2-.6.2-1.5.3-1.9v1.9l.4 6.6c0 .1.1.2.3.2h.8c.2 0 .2-.1.2-.2l-.5-8.9c0-.2-.2-.3-.3-.3z"/><path class="st1" d="m84.9 79.6h-.5c-.2 0-.3.1-.3.3v6.4c0 .7.1 1.5.2 2.1-.2-.5-.3-1.1-.6-1.8l-3-6.8c-.1-.1-.2-.2-.3-.2h-1.1c-.2 0-.3.1-.3.3v9c0 .1.1.3.3.3h.5c.2 0 .3-.1.3-.3v-6.5c0-.5-.1-1.5-.2-2.1.2.6.4 1.3.6 1.9l3 6.8c.1.1.2.2.3.2h1c.2 0 .3-.1.3-.3v-9c.1-.2 0-.3-.2-.3z"/><path class="st1" d="m104 88.1h-3.7c-.3 0-.6.1-.7.1.2-.1.4-.3.5-.6l3.9-6.7c.1-.1.2-.3.2-.5v-.5c0-.2-.1-.3-.3-.3h-4.9c-.2 0-.3.1-.3.3v.5c0 .2.1.3.3.3h3.3c.3 0 .6 0 .8-.1-.2.1-.4.4-.5.6l-3.9 6.7c-.1.1-.1.2-.1.4v.6c0 .2.1.3.3.3h5.1c.2 0 .3-.1.3-.3v-.5c0-.2-.2-.3-.3-.3z"/><path class="st1" d="m2.9 73.5h-1.7c-.1 0-.2-.1-.2-.2v-.2c0-.1.1-.2.2-.2h.5v-5.1h-.5c-.1 0-.2-.1-.2-.2v-.2c0-.1.1-.2.2-.2h1.7c.1 0 .2.1.2.2v.2c0 .1-.1.2-.2.2h-.5v5.1h.5c.1 0 .2.1.2.2v.2c0 .1-.1.2-.2.2z"/><path class="st1" d="m8.4 73.5h-.7c-.1 0-.2-.1-.2-.1l-2-4.4c-.2-.4-.3-.8-.4-1.2 0 .4.1 1 .1 1.3v4.3c0 .1-.1.2-.2.2h-.3c-.1 0-.2-.1-.2-.2v-5.9c0-.1.1-.2.2-.2h.7c.1 0 .2 0 .2.1l1.9 4.4c.2.4.3.8.4 1.2 0-.4-.1-.9-.1-1.3v-4.3c0-.1.1-.2.2-.2h.3c.1 0 .2.1.2.2v5.9c.1.2 0 .2-.1.2z"/><path class="st1" d="m14.2 73.5h-1.3c-.1 0-.2-.1-.2-.2v-5.9c0-.1.1-.2.2-.2h1.3c1.7 0 2.4 1 2.4 3.1 0 2.2-.6 3.2-2.4 3.2zm1.1-5.1c-.3-.3-.7-.4-1.1-.4h-.7v4.9h.7c.9 0 1.6-.3 1.6-2.4 0-1.2-.2-1.8-.5-2.1z"/><path class="st1" d="m21.3 73.5h-2.9c-.1 0-.2-.1-.2-.2v-5.9c0-.1.1-.2.2-.2h2.8c.1 0 .2.1.2.2v.3c0 .1-.1.2-.2.2h-2.2v1.9h2c.1 0 .2.1.2.2v.3c0 .1-.1.2-.2.2h-2v2.3h2.4c.1 0 .2.1.2.2v.3c-.1.2-.2.2-.3.2z"/><path class="st1" d="m27.1 73.5h-.6c-.1 0-.1 0-.2-.1-.3-.8-.4-1.5-.7-2-.2-.4-.5-.8-1.2-.8h-.5v2.7c0 .1-.1.2-.2.2h-.4c-.1 0-.2-.1-.2-.2v-5.9c0-.1.1-.2.2-.2h1.6c1.5 0 1.9.9 1.9 1.5 0 .7-.4 1.4-1.4 1.6h-.1c.6.1.9.6 1.1 1 .1.2.4.9.7 1.9.1.2.1.3 0 .3zm-2.2-5.6h-1v2.1h.9c.7 0 1.2-.4 1.2-1.1 0-.5-.3-1-1.1-1z"/><path class="st1" d="m34.3 73.5h-.6c-.1 0-.2 0-.2-.1l-2-3.3v3.3c0 .1-.1.2-.2.2h-.4c-.1 0-.2-.1-.2-.2v-5.9c0-.1.1-.2.2-.2h.4c.1 0 .2.1.2.2v2.5l1.9-2.7c0-.1.1-.1.2-.1h.6c.2 0 .1.1.1.2l-2.1 2.6 2.2 3.3c.1.2 0 .2-.1.2z"/><path class="st1" d="m37.5 73.6c-1.4 0-1.9-.7-1.9-1.9v-4.2c0-.1.1-.2.2-.2h.4c.1 0 .2.1.2.2v4c0 .9.3 1.5 1.2 1.5.7 0 1.2-.2 1.2-1.3v-4.1c0-.1.1-.2.2-.2h.4c.1 0 .2.1.2.2v4.2c-.1 1.1-.8 1.8-2.1 1.8z"/><path class="st1" d="m44.3 73.5h-2.6c-.1 0-.2-.1-.2-.2v-5.9c0-.1.1-.2.2-.2h.3c.1 0 .2.1.2.2v5.4h2.1c.1 0 .2.1.2.2v.3c0 .2-.1.2-.2.2z"/><path class="st1" d="m48.7 67.9h-1.4v5.4c0 .1-.1.2-.2.2h-.4c-.1 0-.2-.1-.2-.2v-5.4h-1.4c-.1 0-.2-.1-.2-.2v-.3c0-.1.1-.2.2-.2h3.6c.1 0 .2.1.2.2v.3c0 .2-.1.2-.2.2z"/><path class="st1" d="m51.9 73.6c-1.4 0-1.9-.7-1.9-1.9v-4.2c0-.1.1-.2.2-.2h.4c.1 0 .2.1.2.2v4c0 .9.3 1.5 1.2 1.5.7 0 1.2-.2 1.2-1.3v-4.1c0-.1.1-.2.2-.2h.4c.1 0 .2.1.2.2v4.2c-.1 1.1-.8 1.8-2.1 1.8z"/><path class="st1" d="m59.7 73.5h-.6c-.1 0-.1 0-.2-.1-.3-.8-.4-1.5-.7-2-.2-.4-.5-.8-1.2-.8h-.5v2.7c0 .1-.1.2-.2.2h-.3c-.1 0-.2-.1-.2-.2v-5.9c0-.1.1-.2.2-.2h1.6c1.5 0 1.9.9 1.9 1.5 0 .7-.4 1.4-1.4 1.6h-.1c.6.1.9.6 1.1 1 .1.2.4.9.7 1.9.1.2.1.3-.1.3zm-2.1-5.6h-1v2.1h.9c.7 0 1.2-.4 1.2-1.1 0-.5-.4-1-1.1-1z"/><path class="st1" d="m65 73.5h-.4c-.1 0-.2-.1-.2-.2v-2.8h-2.4v2.8c0 .1-.1.2-.2.2h-.4c-.1 0-.2-.1-.2-.2v-5.9c0-.1.1-.2.2-.2h.4c.1 0 .2.1.2.2v2.4h2.4v-2.4c0-.1.1-.2.2-.2h.4c.1 0 .2.1.2.2v5.9c0 .2-.1.2-.2.2z"/><path class="st1" d="m71 73.5h-.5c-.1 0-.2-.1-.3-.2l-.4-1.6h-2.1l-.4 1.6c0 .1-.1.2-.2.2h-.5c-.1 0-.2-.1-.1-.2l1.7-5.9c0-.1.1-.2.3-.2h.5c.1 0 .2.1.3.2l1.8 5.9c0 .1 0 .2-.1.2zm-2.1-5.1c-.1-.2-.1-.5-.1-.8 0 .3-.1.5-.1.8l-.7 2.7h1.8z"/><path class="st1" d="m74.3 73.6c-1.4 0-1.9-.7-1.9-1.9v-4.2c0-.1.1-.2.2-.2h.4c.1 0 .2.1.2.2v4c0 .9.3 1.5 1.2 1.5.7 0 1.2-.2 1.2-1.3v-4.1c0-.1.1-.2.2-.2h.4c.1 0 .2.1.2.2v4.2c-.1 1.1-.8 1.8-2.1 1.8z"/><path class="st1" d="m79.7 70.9h-.7v2.4c0 .1-.1.2-.2.2h-.4c-.1 0-.2-.1-.2-.2v-5.9c0-.1.1-.2.2-.2h1.3c1.3 0 2 .7 2 1.8s-.7 1.9-2 1.9zm.1-3h-.8v2.3h.8c.7 0 1.1-.5 1.1-1.2 0-.6-.4-1.1-1.1-1.1z"/><path class="st1" d="m86.2 67.9h-1.4v5.4c0 .1-.1.2-.2.2h-.4c-.1 0-.2-.1-.2-.2v-5.4h-1.4c-.1 0-.2-.1-.2-.2v-.3c0-.1.1-.2.2-.2h3.6c.1 0 .2.1.2.2v.3c0 .2-.1.2-.2.2z"/><path class="st1" d="m88.6 73.6c-.5 0-1.1-.1-1.5-.3-.1 0-.2-.1-.1-.2l.1-.4c0-.1.1-.2.2-.1.3.1.8.3 1.3.3.7 0 1.2-.4 1.2-1s-.4-.8-.9-1.1l-.4-.2c-.7-.3-1.4-.6-1.4-1.7 0-1 .7-1.7 1.9-1.7.4 0 .9.1 1.1.2.1 0 .1.1.1.2v.4c0 .1-.1.2-.2.1-.3-.1-.6-.2-1-.2-.8 0-1.1.3-1.1.9s.4.8 1 1l.5.2c.7.3 1.3.7 1.3 1.7s-.7 1.9-2.1 1.9z"/><path class="st1" d="m95.3 67.9h-1.4v5.4c0 .1-.1.2-.2.2h-.4c-.1 0-.2-.1-.2-.2v-5.4h-1.4c-.1 0-.2-.1-.2-.2v-.3c0-.1.1-.2.2-.2h3.6c.1 0 .2.1.2.2v.3c-.1.2-.1.2-.2.2z"/><path class="st1" d="m100.4 73.5h-.5c-.1 0-.2-.1-.3-.2l-.4-1.6h-2.1l-.4 1.6c0 .1-.1.2-.2.2h-.5c-.1 0-.2-.1-.1-.2l1.7-5.9c0-.1.1-.2.3-.2h.6c.1 0 .2.1.3.2l1.8 5.9c-.1.1-.1.2-.2.2zm-2.2-5.1c-.1-.2-.1-.5-.1-.8 0 .3-.1.5-.1.8l-.7 2.7h1.7z"/><path class="st1" d="m103.3 73.5h-1.3c-.1 0-.2-.1-.2-.2v-5.9c0-.1.1-.2.2-.2h1.3c1.7 0 2.4 1 2.4 3.1 0 2.2-.6 3.2-2.4 3.2zm1.1-5.1c-.3-.3-.7-.4-1.1-.4h-.7v4.9h.7c.9 0 1.6-.3 1.6-2.4 0-1.2-.2-1.8-.5-2.1z"/><path class="st1" d="m110.4 67.9h-1.4v5.4c0 .1-.1.2-.2.2h-.4c-.1 0-.2-.1-.2-.2v-5.4h-1.4c-.1 0-.2-.1-.2-.2v-.3c0-.1.1-.2.2-.2h3.6c.1 0 .2.1.2.2v.3c0 .2-.1.2-.2.2z"/><path class="st1" d="m116.9 73.5h-2.9c-.1 0-.2-.1-.2-.2v-5.9c0-.1.1-.2.2-.2h2.8c.1 0 .2.1.2.2v.3c0 .1-.1.2-.2.2h-2.3v1.9h2.1c.1 0 .2.1.2.2v.3c0 .1-.1.2-.2.2h-2.1v2.3h2.4c.1 0 .2.1.2.2v.3c0 .2-.1.2-.2.2z"/><path class="st1" d="m120.6 73.6c-1.4 0-1.9-.7-1.9-1.9v-4.2c0-.1.1-.2.2-.2h.4c.1 0 .2.1.2.2v4c0 .9.3 1.5 1.2 1.5.7 0 1.2-.2 1.2-1.3v-4.1c0-.1.1-.2.2-.2h.4c.1 0 .2.1.2.2v4.2c-.1 1.1-.8 1.8-2.1 1.8z"/><path class="st1" d="m128.4 73.5h-.6c-.1 0-.1 0-.2-.1-.3-.8-.4-1.5-.7-2-.2-.4-.5-.8-1.2-.8h-.5v2.7c0 .1-.1.2-.2.2h-.4c-.1 0-.2-.1-.2-.2v-5.9c0-.1.1-.2.2-.2h1.6c1.5 0 1.9.9 1.9 1.5 0 .7-.4 1.4-1.4 1.6h-.1c.6.1.9.6 1.1 1 .1.2.4.9.7 1.9.2.2.2.3 0 .3zm-2.1-5.6h-1v2.1h.9c.7 0 1.2-.4 1.2-1.1 0-.5-.4-1-1.1-1z"/><path class="st1" d="m131.8 73.6c-1.4 0-2.1-1-2.1-3.2s.7-3.2 2.1-3.2 2.1 1 2.1 3.2-.8 3.2-2.1 3.2zm-.1-5.8c-1.2 0-1.3 1.3-1.3 2.6 0 1.8.4 2.5 1.3 2.5 1 0 1.3-1 1.3-2.5.1-1.4-.2-2.6-1.3-2.6z"/><path class="st1" d="m137 70.9h-.7v2.4c0 .1-.1.2-.2.2h-.4c-.1 0-.2-.1-.2-.2v-5.9c0-.1.1-.2.2-.2h1.3c1.3 0 2 .7 2 1.8s-.7 1.9-2 1.9zm.1-3h-.8v2.3h.8c.7 0 1.1-.5 1.1-1.2 0-.6-.4-1.1-1.1-1.1z"/><path class="st1" d="m144.3 73.5h-.5c-.1 0-.2-.1-.3-.2l-.4-1.6h-2.1l-.4 1.6c0 .1-.1.2-.2.2h-.5c-.1 0-.2-.1-.1-.2l1.7-5.9c0-.1.1-.2.3-.2h.6c.1 0 .2.1.3.2l1.8 5.9c-.1.1-.1.2-.2.2zm-2.2-5.1c-.1-.2-.1-.5-.1-.8 0 .3-.1.5-.1.8l-.7 2.7h1.8z"/><path class="st1" d="m146.8 73.6c-.5 0-1.1-.1-1.5-.3-.1 0-.2-.1-.1-.2l.1-.4c0-.1.1-.2.2-.1.3.1.8.3 1.3.3.7 0 1.2-.4 1.2-1s-.4-.8-.9-1.1l-.4-.2c-.7-.3-1.4-.6-1.4-1.7 0-1 .7-1.7 1.9-1.7.4 0 .9.1 1.1.2.1 0 .1.1.1.2l-.1.3c0 .1-.1.2-.2.1-.3-.1-.6-.2-1-.2-.8 0-1.1.3-1.1.9s.4.8 1 1l.5.2c.7.3 1.3.7 1.3 1.7.1 1.1-.6 2-2 2z"/><path class="st1" d="m93.3 4.1c.7 0 1.3-.6 1.3-1.3s-.6-1.3-1.3-1.3-1.3.6-1.3 1.3.6 1.3 1.3 1.3z"/><path class="st1" d="m98.2 36.5h-2.7c-.5 0-.8-.4-.8-.9v-2.7c0-.6.4-1 1-1h2.6v-3.1h-2.7c-.6 0-.9-.3-.9-.9v-2.7c0-.6.3-.9.9-.9h2.7v-3.1h-2.7c-.5 0-.9-.4-.9-.9v-2.8c0-.6.4-.9.9-.9h2.7v-3.1h-2.7c-.6 0-.9-.4-.9-1v-2.6c0-.6.3-1 .9-1h2.6v-2.7h-3.6v-1.2h-40v1.2h-3.6v2.9h2.7c.5 0 .9.4.9.9v2.7c0 .6-.3.9-.9.9h-2.7v3.1h2.7c.5 0 .9.4.9.9v2.8c0 .5-.3.9-.8.9h-2.8v3.1h2.7c.5 0 .8.4.8.9v2.8c0 .5-.3.9-.9.9h-2.7v3h2.6c.6 0 .9.4.9.9v2.6c0 .7-.3 1-1 1.1h-2.5v3h3.6v2.1h40.1v-2.1h3.6zm-13.7-26.4c0-.6.4-.9 1-1h5.5c.6 0 1 .4 1 1v2.5c0 .6-.4 1.1-1 1.1h-5.5c-.6 0-1-.4-1-1zm0 7.7c0-.7.4-1 1.1-1h5.4c.6 0 1 .4 1 1v2.5c0 .6-.4 1-1.1 1h-5.3c-.7 0-1.1-.4-1.1-1.1zm-17.3-7.6c0-.7.3-1 1-1.1h12.6c.7 0 1.1.3 1.1 1.1v2.4c0 .8-.4 1.1-1.1 1.1h-12.5c-.7 0-1.1-.3-1.1-1.1zm0 7.5c0-.7.3-1 1-1h12.6c.8 0 1.1.3 1.1 1.1v2.4c0 .7-.4 1.1-1.1 1.1h-12.5c-.7 0-1.1-.4-1.1-1.1zm13.6 11.2h-12.5c-.7 0-1-.3-1-1v-2.6c0-.6.3-.9.9-.9h12.6c.9 0 1.2.3 1.2 1.2v2.2c-.1.7-.4 1.1-1.2 1.1zm1.1 4.1v2.4c0 .7-.4 1.1-1.1 1.1h-12.5c-.7 0-1.1-.4-1.1-1.1v-2.5c0-.6.4-1 1-1h12.6c.8.1 1.1.4 1.1 1.1zm-24.8-22.8c0-.7.4-1.1 1.1-1.1h5.3c.7 0 1.1.4 1.1 1.1v2.4c0 .7-.4 1.1-1.1 1.1h-5.3c-.7 0-1.1-.4-1.1-1.2zm6.4 11.1h-5.3c-.7 0-1.1-.4-1.1-1.1v-2.4c0-.7.4-1.1 1.1-1.1h5.3c.7 0 1.1.4 1.1 1.1v2.3c0 .8-.4 1.2-1.1 1.2zm1.1 4.1v2.4c0 .7-.4 1.1-1.1 1.1h-5.4c-.6 0-1.1-.4-1.1-1.1v-2.4c0-.6.4-1.1 1-1.1h5.4c.8.1 1.2.5 1.2 1.1zm-7.5 7.6c0-.7.4-1.1 1.1-1.1h5.4c.6 0 1 .4 1.1 1v2.5c0 .7-.4 1.1-1.1 1.1h-5.3c-.7 0-1.1-.4-1.1-1.1-.1-.8-.1-1.6-.1-2.4zm34.4 7.1h-34c-.4-.1-.5-.2-.4-.6h34.9c0 .4-.1.6-.5.6zm-7-4.6v-2.5c0-.6.4-1 1-1h5.4c.6 0 1 .4 1 1.1v2.4c0 .6-.4 1.1-1 1.1h-5.4c-.6-.1-1-.5-1-1.1zm7.5-7.6c0 .6-.4.9-1 .9h-5.5c-.6 0-1-.4-1-1v-2.6c0-.5.4-1 1-1h5.6c.5 0 .9.4.9.9z"/><path class="st1" d="m83.2 4.1c.8 0 1.3-.5 1.3-1.3 0-.7-.5-1.3-1.3-1.3s-1.3.5-1.3 1.3c0 .7.6 1.3 1.3 1.3z"/><path class="st1" d="m55.9 4.1c.7 0 1.3-.6 1.3-1.3s-.6-1.3-1.3-1.3-1.3.6-1.3 1.3c-.1.7.5 1.3 1.3 1.3z"/><path class="st1" d="m65.9 4.1c.7 0 1.3-.6 1.3-1.3s-.6-1.3-1.3-1.3-1.3.6-1.3 1.3.6 1.3 1.3 1.3z"/><path class="st1" d="m79.5 3.6c-.7-1.5-1.8-2.6-3.4-3.2-.7-.3-1.4-.4-2.1-.4-1.5.2-2.7 1-3.7 2.2-.4.5-.8 1.1-1 1.8h10.3c0-.2 0-.3-.1-.4z"/><path class="st1" d="m125.8 26.7c-.4-1.1-1-2-1.7-2.8s-1.6-1.4-2.5-1.9c-.8-.4-1.7-.6-2.6-.7h-.2v3h.1c1.4.3 2.4 1 3.1 1.9.7 1 1.1 2.3 1.1 3.9v.3c0 1.7-.5 3.2-1.5 4.4s-2.5 1.7-4.5 1.7h-16v2.9h17.4c1.1 0 2.1-.2 3-.6 1-.4 1.8-1 2.5-1.8s1.3-1.7 1.7-2.8.6-2.3.6-3.7v-.4c.2-1.1 0-2.3-.5-3.4z"/><rect class="st1" x="110.1" y="13.7" width="15.4" height="3"/><path class="st1" d="m125.7 9.1v-2.9h-24.6v9.3c0 1.2.2 2.3.6 3.4s1 2 1.7 2.8c.6.6 1.2 1.2 2 1.6.2.1.3.2.5.3.8.4 1.7.6 2.6.7h.2v-3h-.1c-1.3-.3-2.2-.9-2.9-1.7v-.1c0-.1-.1-.1-.1-.2-.7-1-1.1-2.3-1.1-3.9v-6.3z"/><rect class="st1" x="101.2" y="28.9" width="16.3" height="3.1"/><path class="st1" d="m47.7 18.9c-.4 1.1-1 2-1.7 2.8s-1.6 1.4-2.5 1.9c-.8.4-1.7.6-2.6.7h-.2v-3h.1c1.4-.3 2.4-1 3.1-1.9.7-1 1.1-2.3 1.1-3.9v-.3c0-1.7-.5-3.2-1.5-4.4s-2.5-1.7-4.5-1.7h-15v-2.9h16.4c1.1 0 2.1.2 3 .6 1 .4 1.8 1 2.5 1.8s1.3 1.7 1.7 2.8.6 2.3.6 3.7v.4c.1 1.2-.1 2.3-.5 3.4z"/><rect class="st1" x="24" y="13.7" width="15.4" height="3.1"/><rect class="st1" x="32" y="28.9" width="16.1" height="3"/><path class="st1" d="m48 36.5v2.9h-25v-9.3c0-1.2.2-2.3.6-3.4s1-2 1.7-2.8c.6-.6 1.2-1.2 2-1.6.2-.1.3-.2.5-.3.8-.4 1.7-.6 2.6-.7h.2v3h-.1c-1.3.3-2.2.9-2.9 1.7v.1c0 .1-.1.1-.1.2-.7 1-1.1 2.3-1.1 3.9v6.4h21.6z"/></g></svg>